<svg width="307" height="90" viewBox="0 0 307 90" fill="none" xmlns="http://www.w3.org/2000/svg">
<g clip-path="url(#clip0_74_4686)">
<mask id="mask0_74_4686" style="mask-type:luminance" maskUnits="userSpaceOnUse" x="0" y="0" width="307" height="90">
<path d="M306.262 0H0V90H306.262V0Z" fill="white"/>
</mask>
<g mask="url(#mask0_74_4686)">
<path d="M119.429 4.94187C119.429 6.39126 120.534 8.69647 123.474 8.69647C124.73 8.69647 125.531 8.36518 126.138 8.0477L126.276 7.97868V6.26702L125.89 6.51549C125.144 6.99862 124.316 7.27469 123.571 7.27469C122.025 7.27469 120.975 6.30844 120.975 4.85905C120.975 3.40966 122.052 2.4158 123.529 2.4158C124.288 2.4158 125.006 2.63666 125.821 3.11979L126.193 3.34064V1.6566L126.041 1.58758C125.061 1.17347 124.288 0.994019 123.529 0.994019C121.155 0.994019 119.429 2.66426 119.429 4.95567" fill="white"/>
<path d="M143.682 1.07675H142.481V6.10129C141.763 5.27307 138.078 1.07675 138.078 1.07675H136.905V8.61356H138.354V3.61663C139.072 4.44485 142.688 8.61356 142.688 8.61356H143.917V1.07675H143.668H143.682Z" fill="white"/>
<path d="M148.721 1.06293H145.739V8.59974H148.735C151.316 8.59974 152.71 6.65342 152.71 4.83133C152.71 3.00925 151.468 1.06293 148.721 1.06293ZM149.839 6.9571C149.508 7.10894 149.094 7.20557 148.583 7.20557H147.23V2.48471H147.271H148.583C150.225 2.48471 151.192 3.36814 151.192 4.84514C151.192 5.50771 150.874 6.51538 149.853 6.9709" fill="white"/>
<path d="M155.429 1.07675H154.173V8.59976H155.678V1.07675H155.429Z" fill="white"/>
<path d="M163.187 1.07675H157.072V2.48473H159.502V8.59976H161.006V2.48473H163.45V1.07675H163.187Z" fill="white"/>
<path d="M182.25 1.07675H180.98V8.59976H182.498V1.07675H182.25Z" fill="white"/>
<path d="M188.723 1.07675H184.472V8.59976H189.055V7.19178H185.99V5.50773H188.862V4.09976H185.99V2.48473H188.972V1.07675H188.723Z" fill="white"/>
<path d="M196.095 1.07675H189.966V2.48473H192.396V8.59976H193.9V2.48473H196.344V1.07675H196.095Z" fill="white"/>
<path d="M131.439 0.9664C129.147 0.9664 127.422 2.62284 127.422 4.83143C127.422 7.04002 129.147 8.68266 131.425 8.68266C134.089 8.68266 135.483 6.73634 135.483 4.83143C135.483 2.59523 133.785 0.9664 131.453 0.9664M131.439 7.27468C130.003 7.27468 128.954 6.25321 128.954 4.84523C128.954 3.43726 130.003 2.41579 131.439 2.41579C132.874 2.41579 133.937 3.43726 133.937 4.84523C133.937 6.25321 132.888 7.27468 131.439 7.27468Z" fill="white"/>
<path d="M168.349 0.9664C166.058 0.9664 164.333 2.62284 164.333 4.83143C164.333 7.04002 166.058 8.68266 168.336 8.68266C171 8.68266 172.394 6.73634 172.394 4.83143C172.394 2.59523 170.696 0.9664 168.363 0.9664M168.349 7.27468C166.914 7.27468 165.865 6.25321 165.865 4.84523C165.865 3.43726 166.914 2.41579 168.349 2.41579C169.785 2.41579 170.848 3.43726 170.848 4.84523C170.848 6.25321 169.799 7.27468 168.349 7.27468Z" fill="white"/>
<path d="M179.654 8.10283L178.785 6.84669C178.316 6.08749 177.929 5.52154 177.418 5.07982C178.053 4.70712 178.44 4.08595 178.44 3.29914C178.44 1.94638 177.432 1.07675 175.886 1.07675H173.857V8.61356H175.362V5.56295H175.527C175.941 5.56295 176.286 5.67338 177.184 7.05375L178.191 8.61356H180.027L179.654 8.10283ZM176.88 3.28534C176.88 3.53381 176.811 3.72706 176.673 3.8651C176.493 4.05835 176.176 4.14117 175.748 4.14117H175.348V2.42951H175.748C176.742 2.42951 176.88 2.87123 176.88 3.24393V3.27154V3.28534Z" fill="white"/>
<path d="M210.631 45.8834C209.471 46.9739 208.243 47.25 206.807 46.9463C206.089 46.7531 205.482 46.1043 205.316 45.3865C205.15 44.5997 205.316 43.7715 206.448 43.3021C207.594 42.8328 209.471 44.5031 209.65 42.6258C209.692 42.1978 209.526 41.8389 209.181 41.4386C208.394 40.5414 206.517 40.5552 205.413 40.9831C201.962 42.612 198.911 48.7132 198.511 49.5828C198.111 50.4524 196.661 52.9509 197.614 54.8972C198.552 56.2362 200.223 56.181 201.285 55.9049C202.114 55.684 202.873 55.1733 203.48 54.6626C204.598 53.7239 205.371 52.5368 205.965 52.1227C206.627 51.6534 208.256 51.8052 207.718 53.2684C207 55.2561 204.212 58.0307 200.844 58.4172C197.959 58.7623 195.253 58.2791 193.983 56.0982C191.526 51.888 194.08 46.9463 196.399 43.661C199.008 40.1273 202.707 37.9739 207.456 38.5951C209.402 38.8435 210.934 40.1135 211.597 41.3972C212.19 42.5291 211.914 44.6825 210.617 45.8972" fill="white"/>
<path d="M178.233 22.8038C178.509 22.2103 178.868 21.5891 178.108 21.5615C177.611 21.5477 177.598 21.5339 176.866 21.5201C176.259 21.5201 175.624 21.5477 175.03 21.5753C174.036 21.6443 174.023 22.1274 173.374 23.3698C172.518 25.0124 172.049 25.9373 171.11 27.7317C170.171 29.5262 158.756 51.2256 158.397 51.9572C158.038 52.6888 155.94 55.3805 157.334 57.4925C158.19 58.5416 160.44 58.7486 162.248 58.1412C163.711 57.6305 166.003 55.7808 165.754 54.925C165.257 53.1719 163.656 55.6842 162.4 55.0216C161.82 54.787 161.82 54.1106 162.013 53.6551C166.748 44.2685 176.217 26.7103 176.783 25.675C177.363 24.6397 177.901 23.494 178.233 22.79" fill="white"/>
<path d="M225.842 52.8958C224.944 52.3299 224.019 53.8207 223.44 54.3176C222.874 54.8007 222.625 54.9526 221.604 55.4495C220.113 56.1949 217.739 55.8498 216.773 54.9802C216.11 54.3866 215.641 53.1719 216.124 51.9986C216.124 51.9986 216.303 51.7087 216.496 51.7363C216.69 51.7501 219.464 51.9572 220.072 51.902C220.707 51.8329 221.839 51.5983 222.667 51.2808C223.495 50.9633 224.047 50.6596 225.276 49.6658C227.042 48.2302 228.658 45.4971 228.188 42.0185C227.926 40.0722 226.366 39.0783 224.875 38.6504C222.832 38.0569 219.92 38.9817 218.112 40.1688C216.496 41.2179 215.185 42.9296 214.454 43.951C213.598 45.152 209.981 51.3912 213.391 55.8774C215.254 58.3207 217.628 58.3483 219.078 58.2931C220.817 58.2379 221.783 57.8376 222.708 57.3958C223.412 57.0645 224.365 56.3329 224.696 56.0431C225.041 55.7394 225.676 55.1458 226.062 54.3728C226.394 53.7379 226.394 53.2685 225.855 52.882M218.664 45.9112C220.127 43.5093 220.582 42.902 221.631 42.1566C222.681 41.4112 223.854 41.2455 224.171 42.6535C224.53 44.2547 223.371 46.8912 221.452 48.2302C220.417 48.9618 217.835 50.0385 217.104 49.5691C216.883 49.4311 217.477 47.8161 218.65 45.8974" fill="white"/>
<path d="M130.376 40.3069C130.376 40.3069 130.748 39.6167 130.486 39.4925C130.307 39.4096 128.995 39.3544 127.863 39.3682C126.731 39.382 125.682 39.8238 125.213 40.721C121.831 38.1949 116.958 37.8222 113.383 39.7409C110.912 41.1351 108.718 43.4127 107.53 46.1735C105.998 49.6934 105.57 54.4004 107.765 56.8299C109.256 58.4725 111.147 58.2655 112.238 58.3345C114.667 58.4863 117.29 56.7195 117.883 56.4986C118.477 56.2777 118.877 57.382 119.484 57.81C121.058 58.9004 122.784 58.1965 123.736 57.9066C125.075 57.4925 126.828 55.7946 126.428 54.8974C125.958 53.8207 124.261 55.5185 123.695 55.3667C123.28 55.2563 122.894 55.1044 123.087 54.4557C125.282 49.6106 127.836 44.9725 130.376 40.3207M121.403 48.4511C120.285 50.563 117.359 55.9879 113.48 55.9603C112.555 55.9741 110.94 55.4357 110.83 53.7103C110.554 49.5692 113.853 44.2409 116.834 42.2118C119.126 40.6658 122.963 39.9204 123.902 43.3437C123.75 44.2685 122.549 46.2977 121.403 48.4511Z" fill="white"/>
<path d="M193.514 40.3897C193.514 40.3897 193.887 39.6995 193.624 39.5752C193.445 39.4924 192.134 39.4372 191.002 39.451C189.87 39.4648 188.821 39.9065 188.351 40.8038C184.97 38.2777 180.097 37.905 176.522 39.8237C174.051 41.2179 171.856 43.4955 170.669 46.2562C169.137 49.7762 168.709 54.4832 170.904 56.9127C172.394 58.5553 174.285 58.3482 175.376 58.4173C177.805 58.5691 180.428 56.8022 181.022 56.5814C181.615 56.3605 182.016 57.4648 182.623 57.8927C184.197 58.9832 185.922 58.2792 186.874 57.9893C188.213 57.5752 189.966 55.8774 189.566 54.9801C189.097 53.9035 187.399 55.6013 186.833 55.4495C186.419 55.339 186.032 55.1872 186.226 54.5384C188.42 49.6933 190.974 45.0553 193.514 40.4035M184.542 48.5338C183.424 50.6458 180.497 56.0706 176.618 56.043C175.693 56.0568 174.078 55.5185 173.968 53.793C173.692 49.6519 176.991 44.3237 179.973 42.2946C182.264 40.7485 186.101 40.0031 187.04 43.4265C186.888 44.3513 185.687 46.3804 184.542 48.5338Z" fill="white"/>
<path d="M128.816 26.3928C128.623 25.3437 128.222 23.5492 126.455 22.2793C122.494 19.4357 117.966 19.8636 113.342 22.2931C111.451 23.287 109.146 25.0124 107.572 26.6275C102.285 32.3008 99.2069 38.9127 96.2805 46.0216C95.3281 48.3406 93.9477 51.9572 91.1732 54.6075C89.8894 53.6413 86.825 52.1781 84.4646 53.1305C83.5673 53.4894 82.463 54.4833 82.2974 55.836C82.2698 56.9817 82.5735 57.3821 83.098 57.9066C83.9262 58.7486 85.7621 59.1903 87.1839 58.9281C88.2192 58.7348 88.5228 58.6244 89.4063 58.2517C90.2345 57.9066 90.414 57.6857 90.8281 58.0584C91.1456 58.3483 91.394 58.8038 91.6149 59.0661C91.9186 59.4526 96.2529 66.4097 101.899 67.8728C108.331 68.7563 110.788 64.7808 111.271 64.1873C111.754 63.5937 111.547 62.6275 110.981 62.6136C110.415 62.6136 108.635 63.994 107.503 64.2011C106.095 64.4633 105.543 64.3805 104.646 64.2839C100.021 63.787 96.5842 60.4189 95.1348 58.9971C93.3541 57.2578 92.8158 56.5262 92.94 56.4158C93.0643 56.2916 93.9201 55.6014 94.8725 54.6627C99.0827 50.5078 100.491 47.4434 102.768 43.2747C104.328 40.4311 107.586 33.1014 109.132 30.6581C111.975 26.1719 116.227 22.6658 119.857 22.2793C122.369 22.1965 124.219 23.0799 125.006 24.3498C125.807 25.6198 125.213 27.152 124.537 27.7456C123.86 28.3391 123.557 28.6428 122.549 28.7532C121.817 28.836 120.023 28.5462 119.512 27.7179C118.891 27.4281 118.794 28.1735 118.725 28.7532C118.67 29.333 118.67 29.8575 118.988 30.5615C119.305 31.2793 119.664 31.6658 120.327 32.1489C121.003 32.6321 122.452 33.129 123.805 32.9771C125.889 32.6597 127.684 31.1965 128.333 29.3882C128.83 28.0216 128.912 26.9587 128.802 26.379M85.6241 57.5615C84.9891 57.2854 84.3127 56.8023 84.4508 56.1121C84.5336 55.6428 84.9477 55.1459 85.8173 54.9388C87.0735 54.6351 88.8817 55.6014 89.3097 56.3054C88.5781 57.0094 86.9216 57.8652 85.6379 57.5615" fill="white"/>
<path d="M164.802 18.8973C163.077 15.8605 159.543 14.3697 155.844 14.3006C147.147 14.135 142.109 21.1749 141.115 22.7761C140.453 23.8666 140.245 24.2117 139.597 25.5506C138.658 27.4832 137.637 31.5414 138.617 34.6197C139.279 36.6902 140.287 38.6227 142.854 39.6994C146.195 41.1074 150.405 41.0936 155.374 38.1948C155.374 38.1948 155.43 38.1534 155.512 38.1672C155.568 38.1672 155.637 38.2362 155.554 38.2914C153.732 39.6166 150.322 44.4065 148.776 47.3052C147.686 49.3344 144.456 55.2286 140.011 56.5537C138.479 57.0092 135.621 57.6166 133.841 56.4019C132.226 54.773 133.896 55.3114 134.503 54.5522C135.111 53.793 134.834 52.5092 134.296 52.0675C133.758 51.6258 133.206 51.3497 132.129 51.5568C131.066 51.7776 130.514 52.8405 130.431 54.2071C130.348 55.5598 131.618 57.1197 133.178 57.8236C137.968 59.9494 144.828 59.066 149.135 54.6626C154.022 49.6795 155.264 42.9019 157.555 39.0644C158.08 38.1948 158.425 37.546 158.991 36.6626C159.446 35.9448 159.722 35.5169 160.247 34.8405C160.647 34.316 161.31 33.8743 161.807 33.2393C162.276 32.6319 161.503 31.7623 160.647 32.3973C158.522 33.8881 156.879 35.5169 155.857 36.1105C155.14 36.5246 153.331 37.5874 151.882 37.9601C150.529 38.3052 147.437 38.6503 145.836 38.0844C144.469 37.6013 143.061 36.2761 142.965 34.8819C142.606 30.2577 143.765 28.3942 145.436 25.6887C146.471 24.0184 147.341 22.7071 148.707 21.3129C151.482 18.4417 155.305 15.9157 159.419 17.089C162.097 17.862 162.69 20.5261 162.566 21.7822C162.442 23.0384 162.097 23.3835 161.117 24.4601C160.095 25.592 157.804 25.3022 156.907 24.8881C156.313 24.6258 155.857 25.8681 156.147 26.5859C156.437 27.3037 156.838 28.5598 158.618 28.9049C160.565 29.2776 162.124 28.4908 163.436 27.3037C164.292 26.5169 166.873 22.5 164.802 18.8697" fill="white"/>
<path d="M302.839 75.8514C302.839 75.8514 304.509 74.7471 304.633 72.4695C304.702 71.0339 302.438 70.7302 301.679 69.5293C302.88 68.6459 303.046 67.4725 302.935 66.0232C302.852 63.925 305.751 63.3314 305.02 60.9572C304.509 59.6321 302.328 59.5354 301.638 59.563C300.948 59.6045 300.05 60.0462 299.54 59.6459C300.616 58.2241 302.494 56.9541 302.135 54.9802C301.776 53.6551 300.244 53.3376 299.429 53.3376C298.601 53.3376 297.828 53.9173 297.717 53.31C297.607 52.7026 297.138 50.287 299.098 50.1903C300.685 49.7072 301.638 48.0232 301.541 46.5738C301.306 45.3867 300.133 45.0968 299.222 44.9449C298.325 44.4066 299.125 43.3713 298.891 42.5845C298.518 41.5216 297.359 40.9695 296.31 40.5554C296.31 40.5554 294.833 34.0676 291.92 31.8038C290.912 31.017 290.471 30.5891 288.027 30.2716C283.845 29.7471 275.314 36.0001 268.122 34.9235C263.429 34.0262 259.164 30.9066 257.176 26.4066C255.078 21.1198 255.036 14.2317 259.398 9.9388C262.408 6.98481 267.032 9.29003 268.191 9.35905C269.365 9.42806 269.806 7.97868 269.696 6.51549C269.599 5.0523 268.316 3.72714 267.294 2.78849C265.362 1.17346 262.794 0.828371 259.992 0.911193C254.622 1.07684 249.625 7.21947 247.403 12.2854C243.773 21.7686 243.883 33.833 247.334 43.4955C248.673 47.8437 251.475 51.4465 254.001 55.4495C250.937 59.7839 244.974 70.9511 237.437 69.267C236.498 69.06 235.49 68.2732 235.642 66.9618C235.67 65.6505 236.898 66.5339 237.754 66.3544C238.61 66.175 238.845 65.3468 238.61 64.1873C238.375 63.014 236.622 62.0891 235.339 62.6137C234.455 62.9587 233.917 63.3728 233.227 64.4219C232.537 65.471 232.647 67.9419 233.641 69.0186C234.635 70.0952 235.104 70.5232 236.802 71.0891C245.277 73.9603 252.814 61.9649 255.409 57.8652C255.713 57.382 255.851 57.3821 256.072 57.6167C261.662 63.6075 273.713 68.7839 275.466 69.2118C277.219 69.6397 278.365 68.7563 278.986 70.2195C277.661 70.9787 276.059 71.9863 275.245 73.6704C274.693 74.7195 275.052 76.0308 275.825 76.9695C277.219 79.0952 280.007 77.3284 281.829 77.8943C281.94 79.0814 282.713 79.744 283.21 80.6965C281.885 81.3176 279.856 81.3728 278.972 82.0354C278.089 82.698 276.833 84.2164 277.716 85.5416C278.475 86.6044 279.248 87.198 280.808 87.5845C282.382 87.971 283.5 87.6121 284.701 86.8529C285.639 86.356 286.26 84.4373 287.185 84.4649C288.317 86.1903 290.098 88.4679 292.348 88.2609C294.708 88.1919 296.944 87.4465 298.173 85.514C299.125 83.9541 297.221 83.0293 296.986 81.7179C296.862 81.3176 297.483 81.3038 297.883 81.3176C299.291 82.6566 301.652 83.1121 303.363 82.2287C304.426 81.7318 306.055 80.9725 306.165 79.2609C306.276 77.5492 304.288 76.6106 302.852 75.9204M300.644 54.8836C301.665 55.7394 300.202 56.6643 299.802 57.3544C298.615 59.356 296.227 57.6029 294.653 58.9419C294.142 59.3698 294.777 59.5906 295.122 59.7701C295.467 59.9495 297.593 62.2824 298.67 61.5232C299.747 60.764 301.168 60.833 301.831 60.9434C302.494 61.0538 303.267 61.0262 303.115 61.8959C302.963 62.7517 302.135 63.8422 301.5 63.8284C300.865 63.8146 297.414 62.5308 294.529 64.836C294.529 64.836 293.977 65.6228 293.59 65.7333C293.204 65.8575 292.583 64.5324 291.782 64.9051C291.244 65.4296 292.003 66.2302 292.141 66.7548C293.77 69.6811 298.325 66.6857 298.78 68.6182C299.236 70.537 297.441 70.8544 295.826 71.4342C294.211 72.014 292.803 71.8897 291.506 71.2133C290.222 70.2609 290.001 68.425 290.553 67.1275C291.244 65.8299 289.021 65.0845 289.035 64.6014C289.063 64.1182 293.204 62.1995 292.941 60.2394C292.721 58.6382 291.616 57.5477 292.997 57.879C294.377 58.2103 298.283 52.9235 300.671 54.9112M300.713 68.5216C300.023 68.6597 299.498 66.2026 297.745 66.7548C296.958 67.0032 296.986 65.9956 297.51 65.5676C298.035 65.1535 298.587 64.836 299.36 64.8222C300.133 64.8084 301.306 65.5262 301.541 66.5753C301.652 67.2379 301.389 68.3836 300.699 68.5216M297.745 73.0492C297.635 73.3943 297.455 74.0983 297.096 73.5738C296.751 73.0492 298.201 71.7655 298.615 71.9311C299.029 72.1106 297.938 72.4005 297.745 73.0354M288.648 62.8621C287.627 62.9864 286.84 62.0339 286.053 61.6198C285.625 62.517 286.371 63.9112 285.86 63.9664C285.336 64.0354 284.107 64.3805 283.5 64.1735C282.879 63.9664 282.437 62.4618 283.044 61.5508C283.652 60.6397 284.618 61.4541 284.908 60.4189C284.921 59.7563 284.452 58.4725 285.363 57.81C286.274 57.1474 288.938 56.1949 290.346 57.6719C291.368 58.6106 291.727 60.3222 291.188 61.3575C290.512 62.1305 289.684 62.7517 288.662 62.8759M288.966 66.6167C289.063 67.2517 288.165 68.0799 287.075 68.6044C285.984 69.129 284.99 67.7624 284.231 67.086C283.859 66.1612 284.756 65.8299 285.833 65.5538C286.923 65.264 288.883 65.9817 288.966 66.6167ZM286.55 51.9434C285.763 51.3913 284.714 51.764 283.679 51.2256C282.506 50.5354 281.498 49.4725 281.65 48.037C281.816 46.7256 282.63 44.7931 283.417 44.9311C285.667 45.3452 283.748 48.0922 285.694 48.6581C286.882 48.4235 287.71 45.8974 288.483 47.0155C289.256 48.1336 289.615 48.879 289.587 50.0661C289.297 51.3637 287.586 51.8468 288.331 53.31C290.139 54.4005 291.713 54.4419 293.576 53.4342C293.977 53.1857 294.198 52.9787 294.004 52.2609C293.811 51.5431 291.202 52.813 291.133 51.5293C291.064 50.2594 292.458 49.9557 294.184 49.9005C295.909 49.8452 296.268 50.3422 296.503 51.4051C296.862 53.1167 294.902 54.8284 294.06 55.1459C293.217 55.4633 292.458 56.0293 291.837 54.9664C291.188 54.8146 290.774 55.8637 290.25 55.836C289.711 55.8084 286.923 54.3452 283.155 56.471C282.699 56.7333 282.464 56.5952 282.52 55.5324C282.575 54.4695 285.902 53.517 286.371 53.2686C286.854 53.0201 286.909 52.3713 286.537 51.9572M298.863 46.9741C298.311 47.8851 297.027 48.4787 296.337 48.4925C295.647 48.5063 293.231 48.6305 293.342 47.7747C293.452 46.9051 296.047 46.3253 296.779 46.2839C297.51 46.2425 298.615 46.2011 298.863 46.9879M296.503 41.287C297.124 41.3008 298.449 42.5017 298.035 43.0262C297.179 44.1029 296.144 45.7041 295.633 45.0692C295.122 44.4342 295.923 43.4955 294.888 43.2195C293.963 43.0676 292.845 44.4066 292.652 43.6888C292.458 42.971 295.895 41.2593 296.503 41.287ZM267.446 5.74248C267.763 5.56303 268.205 6.41886 267.943 6.9296C267.708 7.3161 267.198 7.34371 267.032 6.91579C266.866 6.47408 267.142 5.92193 267.46 5.74248M263.291 54.4143C263.153 54.2762 263.029 54.014 263.291 53.8759C263.553 53.8759 263.415 54.2762 263.291 54.4143ZM266.259 56.0569C266.162 56.3882 266.093 56.7195 265.707 56.6229C265.32 56.5262 265.513 54.994 265.652 54.4695C265.652 54.4695 265.914 53.9311 266.176 53.9311C266.438 53.9311 266.411 55.5324 266.273 56.0569M276.225 65.6229C275.314 65.6781 274.237 58.1274 273.879 53.1857C273.768 51.5845 273.63 50.1627 273.63 49.086C273.63 48.5201 273.395 48.6167 273.257 49.0032C271.56 52.9235 273.078 62.4066 272.139 61.7578C271.214 61.1091 271.132 55.7946 271.173 54.0692C271.201 52.3437 271.96 48.3268 271.96 48.3268C271.836 47.9265 271.311 48.0508 271.173 48.2992C270.469 49.9833 270.11 54.2072 269.337 53.8897C268.564 53.5722 268.978 50.494 269.185 49.4311C269.392 48.3683 270.069 46.56 269.779 46.2977C268.716 45.3452 267.57 51.0324 266.88 51.5707C266.19 52.109 265.859 50.7839 266.148 49.9971L267.018 47.1949C267.018 47.1949 267.432 46.5738 266.88 46.6014C266.342 46.629 265.224 49.5416 264.561 50.0937C263.898 50.6459 263.65 49.8038 263.664 49.2793C263.705 47.5814 265.348 45.1658 264.961 44.5998C264.575 44.0201 263.622 45.8836 263.208 46.5186C262.394 47.6919 261.994 50.0799 261.607 50.5078C261.221 50.9495 260.889 51.0048 260.889 49.8729C260.889 48.7548 262.159 46.2287 262.601 44.3928C262.214 43.8544 261.814 44.5032 261.538 44.8897C260.185 46.698 259.661 48.4235 258.874 50.7425C258.874 50.7425 258.556 52.3575 258.377 50.9909C258.198 49.6106 259.288 45.6351 260.392 43.1643C259.895 42.5017 259.274 43.109 258.819 43.7302C258.198 44.5722 256.362 49.7348 256.182 50.0109C256.003 50.287 255.52 50.0523 255.533 49.3345C255.589 46.3253 258.874 41.7563 258.736 41.4112C258.598 41.0661 257.135 42.4189 256.458 43.1919C255.257 44.3376 254.098 48.3544 253.877 47.0569C253.67 45.7456 256.044 40.721 256.155 40.2655C256.265 39.81 255.699 39.9894 255.216 40.2655C254.733 40.5416 252.152 45.4557 251.696 45.0278C251.24 44.6136 254.691 39.3544 255.257 38.6781C255.823 38.0017 255.368 37.767 254.802 37.9465C253.09 38.5676 250.909 41.0937 250.481 41.0661C250.053 41.0523 252.786 37.2011 253.201 36.8008C253.67 36.359 253.573 35.8897 252.69 36.2624C251.806 36.6351 249.308 38.4572 248.977 38.1397C248.645 37.8222 251.613 34.5646 251.82 34.0124C252.027 33.4741 250.454 33.7501 249.156 34.6474C248.494 35.1029 248.052 35.8483 247.624 35.2133C247.196 34.5784 250.564 32.7149 250.826 32.0109C251.075 31.3069 247.693 33.3498 247.527 32.7149C247.182 31.3759 250.288 30.0646 250.619 29.3744C250.964 28.698 247.099 30.106 247.086 29.2916C247.058 28.4771 248.576 27.359 249.625 27.1244C249.763 27.0001 249.902 26.5998 249.625 26.5998C248.59 26.31 247.279 27.3176 247.003 26.9311C246.713 26.5446 247.444 25.0952 248.369 24.7363C248.77 24.4879 249.418 24.764 249.556 24.2394C249.584 23.4526 248.576 23.5768 248.273 23.6873C247.969 23.7839 247.61 24.0738 247.348 23.6735C247.237 22.3621 249.211 22.79 249.101 21.7409C249.101 21.7409 247.527 22.086 247.279 21.4235C246.754 20.0155 249.018 20.0293 249.556 19.3943C249.308 18.5937 248.521 18.8422 247.859 18.8284C248.01 17.9173 249.198 18.0692 249.612 17.1719C249.501 16.2471 247.513 17.1167 248.466 15.833C249.28 15.0738 250.826 15.764 250.854 14.4526C250.481 13.9143 249.694 14.0247 249.17 13.7624C249.322 13.1136 250.109 13.1275 250.509 12.879C250.909 12.879 251.282 13.2931 251.682 12.9066C251.958 12.7824 251.696 12.3821 251.572 12.244C251.185 11.9679 250.398 12.0922 250.412 11.5676C250.675 11.4434 251.075 11.4572 251.213 11.0569L251.102 10.2701C251.379 9.62132 252.4 10.56 252.552 9.64892C252.552 9.64892 251.944 9.46947 251.917 8.72408C251.889 7.99248 253.242 8.54463 253.421 6.91579C253.463 6.47408 254.567 7.73021 254.967 7.09524C254.967 7.09524 254.139 6.52929 253.946 6.01855C253.753 5.50782 254.76 4.73481 255.423 4.61058C255.948 4.48635 256.32 5.28696 256.734 4.63819C256.734 4.37592 256.099 3.96181 256.5 3.71334C257.438 3.07837 258.225 3.23021 258.984 4.03082C259.233 4.16886 259.385 3.76855 259.385 3.50628C258.998 3.10598 259.288 2.4572 259.799 2.59524C260.848 2.22254 261.966 4.87285 262.145 2.78849C263.208 2.15352 263.788 5.31457 264.492 3.23021C265.141 3.11978 265.79 3.65813 266.038 4.3207C266.148 4.84524 266.411 5.50782 265.859 5.89432C265.596 6.15659 265.32 6.54309 264.934 6.40506C264.561 6.00475 265.099 5.23174 264.437 5.0799C263.898 5.46641 263.622 6.63972 262.711 6.34984C262.325 5.94954 262.739 5.30076 262.076 5.16273C261.538 5.41119 261.262 6.1842 261 6.70874C260.061 7.34371 260.24 5.63205 259.302 6.15659C258.902 6.79156 258.708 8.53082 258.211 8.48941C257.701 8.448 257.314 7.41273 256.9 8.19954C256.886 8.84831 256.831 9.81457 256.334 9.75935C255.837 9.70414 255.423 9.34524 255.161 9.99401C255.271 10.3943 255.658 10.7946 255.52 11.3192C255.52 11.3192 254.374 11.4572 254.208 11.6781C254.043 11.9127 255.202 13.8038 253.877 14.425C254.388 14.9633 254.291 16.0124 253.974 16.3989C253.642 16.7716 252.773 16.8959 252.773 16.8959C252.773 16.8959 253.629 18.3176 253.518 18.6213C253.408 18.925 252.331 18.7179 252.717 19.3943C252.966 19.7808 254.153 19.836 253.601 20.5952C253.297 21.0094 252.303 20.3054 251.889 20.9541C251.737 21.8652 253.311 21.6857 253.311 22.0446C253.311 22.3897 252.648 22.5554 252.897 22.9419C253.421 23.3422 254.194 23.3698 254.305 24.1566C254.029 24.5431 253.38 24.4051 252.98 24.9158C253.477 25.8406 255.602 25.537 254.94 26.7379C254.65 27.2762 254.181 26.586 253.711 27.29C253.242 27.9802 256.403 28.0492 256.665 29.4572C256.638 30.3821 255.078 30.3406 255.837 31.2793C256.734 32.0937 258.708 31.0308 258.57 32.2594C258.432 33.4879 256.017 33.9434 256.403 34.7164C256.624 35.1719 256.914 35.0615 257.066 34.9787C257.756 34.6474 260.199 33.4603 260.627 34.1367C261.055 34.813 258.543 36.5937 259.26 36.6075C259.978 36.6075 262.918 35.1443 263.084 35.6413C263.25 36.152 260.806 36.4971 261.469 37.8222C262.118 39.1474 264.492 35.2133 265.03 36.856C265.182 37.3391 262.256 38.7333 264.175 39.8514C264.837 40.2241 267.874 36.856 268.302 37.063C268.73 37.2701 267.004 40.8176 267.556 40.9833C268.109 41.1489 269.033 39.175 269.972 38.4158C270.51 38.0431 271.049 37.2563 271.836 37.2839C272.194 38.9955 270.055 42.2946 271.463 42.129C272.857 41.9495 273.064 36.014 274.997 36.5799C275.977 36.8698 273.257 40.7624 273.271 43.0952C273.271 43.5646 273.382 43.7854 273.796 43.2333C274.196 42.6811 276.902 37.3115 277.481 37.0354C278.061 36.7593 278.862 36.1658 276.156 43.0262C273.451 49.8867 277.564 65.5262 276.239 65.609M276.984 57.2164C276.75 55.3253 276.101 50.2456 276.957 46.7394C277.481 41.3698 279.041 35.9035 283.831 32.8667C286.633 30.5753 289.767 31.4311 292.058 33.8468C293.728 35.7241 294.984 38.9817 294.405 40.583C294.17 41.2455 294.004 40.7762 293.88 40.4449C293.77 40.1136 291.934 33.7087 288.152 33.2394C284.604 33.4189 282.575 36.1244 281.319 39.106C277.992 46.8913 277.067 57.4925 281.581 65.4572C282.313 66.7409 282.658 66.9066 283.279 67.9695C283.279 67.9695 284.038 68.7839 283.251 69.0462C282.464 69.3084 280.711 68.356 279.386 65.6781C278.075 63.0002 277.205 59.1213 276.971 57.2302M283.155 85.4173C282.547 85.7348 281.319 86.1075 280.27 85.4725C279.207 84.8514 278.848 84.5063 279.787 83.3606C280.725 82.2149 285.336 81.5799 285.694 82.6842C286.067 83.7747 283.762 85.0998 283.141 85.4173M285.377 79.5784C284.576 78.9572 283.348 78.0876 284.259 76.8038C285.17 75.5201 287.434 74.9403 287.475 74.0017C287.503 73.063 285.06 73.7118 284.356 73.0078C283.652 72.3038 283.141 74.7885 282.727 75.3268C282.313 75.8652 279.276 77.3422 277.73 76.2517C276.432 75.5615 276.694 74.3882 277.398 73.3529C278.793 71.31 282.547 71.7793 285.294 72.3728C286.619 71.7517 287.82 70.5922 289.504 71.4204C290.415 72.221 292.859 72.8836 292.872 73.4633C292.886 74.0431 291.658 74.8713 290.747 74.7333C290.222 74.5814 289.463 74.2778 289.159 74.9541C288.856 75.6305 290.954 77.7977 289.325 79.2747C288.441 80.0753 286.178 80.1995 285.391 79.5784M293.88 86.1903C292.941 86.494 290.402 85.859 289.836 85.4449C289.27 85.0308 288.455 84.7133 288.828 83.3192C289.201 81.925 290.954 82.4357 292.527 82.0906C294.115 81.7594 296.061 82.1735 296.033 83.8713C296.006 85.1827 294.819 85.8867 293.88 86.1903ZM299.029 78.7087C298.09 79.7302 295.978 80.3652 295.343 79.537C294.694 78.7087 293.494 79.8959 292.872 78.5569C292.362 78.0186 292.389 76.9695 292.665 76.3207C293.079 75.4097 294.018 74.7885 295.067 74.6643C297.096 74.4296 297.221 74.8299 298.201 75.7133C299.194 76.6106 300.423 76.7072 299.029 78.6949M299.498 73.5738C299.678 72.6213 300.782 71.6689 301.693 71.5722C302.604 71.7241 303.156 71.8759 302.963 73.1735C302.77 74.4572 301.79 75.244 300.823 75.3544C299.843 75.4649 299.319 74.54 299.498 73.5876M303.06 80.241C302.273 80.7517 301.086 80.586 300.313 80.0477C299.678 79.2471 299.94 78.833 300.506 77.425C301.072 76.017 304.219 77.1903 304.426 78.0324C304.633 78.8744 303.846 79.8544 303.06 80.2271" fill="white"/>
<path d="M294.419 63.0001C294.695 62.7379 295.482 62.3652 295.496 61.7164C295.509 61.1918 294.985 61.178 294.46 61.178C294.06 61.2885 293.66 61.675 293.384 62.0753C293.508 62.4618 293.756 63.1382 294.419 63.0139" fill="white"/>
<path d="M75.5475 64.3114C74.885 63.3451 73.9739 62.4755 72.704 62.4341C71.434 62.3927 70.2469 62.9172 69.6672 63.9939C69.2393 64.6565 69.2254 65.6227 69.75 66.2991C70.6886 67.1411 71.5307 65.6642 72.4969 65.678C73.0353 65.6918 73.4632 65.954 73.5598 66.7961C73.6288 67.3758 72.911 68.3145 71.7377 68.5215C64.1733 69.8467 58.8865 59.0246 56.3604 57.1473C56.0981 56.954 56.2362 56.3329 56.2362 56.3329C61.5782 49.5138 65.4294 41.4387 67.2653 32.77C69.681 22.3482 67.9417 9.77305 59.5215 2.91262C56.0567 0.124273 50.8942 4.02927e-05 47.3052 1.96016C45.7454 3.05065 44.5307 4.21016 44.7515 6.25311C44.8343 6.9571 45.5245 7.89575 46.477 8.06139C48.934 7.85434 50.8527 7.06753 53.2822 8.35127C57.3129 10.8911 57.865 15.9433 56.954 20.4019C56.0015 25.9648 53.4616 29.7608 46.9601 33.0323C43.8543 34.5921 41.3144 34.7991 37.4494 34.5645C34.1779 34.3574 32.2868 33.5982 30.1334 32.4525C27.6073 29.816 22.7346 28.7945 20.1672 29.3467C18.3589 29.7332 16.3435 31.6795 15.6534 32.5905C14.9632 33.5016 13.6932 36.6902 12.5475 39.1059C11.0567 39.0783 8.7101 39.6166 7.88188 40.9142C7.05366 42.2117 7.55059 43.8957 8.19936 45.0138C7.35734 46.2148 6.26685 46.6841 5.94936 48.2163C5.63188 49.7485 8.22697 51.543 8.72391 51.8329C9.22084 52.1227 9.0966 53.1994 8.68249 53.7378C7.17789 53.9724 5.56286 53.3927 4.30673 54.4556C3.60274 55.1181 3.4509 56.0706 3.56133 57.0231C3.67176 57.9755 5.02452 58.4172 4.5966 59.4939C3.36808 60.0046 1.64262 60.7086 1.28372 61.454C0.924824 62.1994 0.966235 62.5445 1.50458 63.497C2.05673 64.4632 4.2101 64.1043 5.7147 64.27C5.01071 65.4709 2.40182 66.3819 4.38955 68.4663C6.37728 70.5368 2.18096 70.316 2.66409 72.6488C2.63648 73.7255 3.29906 74.5537 4.09967 75.1335C4.90028 75.7132 7.17789 75.9617 7.48157 76.3068C7.78525 76.6519 7.60581 77.1212 7.31593 77.5353C4.73464 77.4663 2.13955 77.8114 0.303658 80.227C0.013781 81.1795 0.165622 81.7869 1.18709 83.25C2.20857 84.6994 5.49384 85.0721 7.01225 84.3267C8.54446 83.5813 9.37268 81.7731 11.4156 81.8145C11.6917 81.8145 12.796 81.8697 12.6442 82.5461C11.2638 83.4709 10.2561 86.0246 10.4908 87.1289C10.7254 88.2332 11.3742 89.2823 12.6165 89.4893C15.5981 90 19.5046 87.474 20.7331 85.7347C21.0506 85.293 21.1748 85.5829 21.4095 85.7485C24.3221 87.8881 25.8819 88.0123 27.635 87.3773C29.2776 86.7838 30.5061 86.066 30.6856 84.2163C30.8788 82.3666 29.1257 80.6688 27.5521 80.1856C26.7929 79.951 25.1917 80.4341 25.2193 79.5645C25.2469 78.6948 26.7377 77.77 28.2561 78.0046C29.7745 78.2255 31.4172 76.9832 32.1211 75.6442C32.5629 74.4295 32.6181 72.4142 31.5138 72.0967C30.4095 71.7792 30.4371 71.5169 30.4509 70.8405C39.3267 69.543 47.319 65.112 54.2761 58.7347C54.2761 58.7347 54.5659 58.8175 54.8144 59.1488C58.4034 64.1872 64.2423 72.6074 71.8205 70.9786C74.0705 70.4954 75.4647 69.0185 75.8512 67.4034C76.2377 65.7884 75.9202 65.1396 75.5337 64.3114M47.7607 6.04605L47.4846 6.18409C46.8083 5.89421 46.1595 4.78992 46.9877 4.12734C47.1258 3.9893 47.4018 3.86507 47.8159 3.87887C48.2162 4.43102 47.7745 5.36967 47.7607 6.05986M49.9417 5.96323C49.4034 5.67335 49.0031 4.98317 49.0307 4.30679C49.3205 3.50618 49.8865 2.8436 50.4386 2.56753C50.5491 3.79605 49.9831 4.7347 49.9555 5.96323M9.75918 42.0461C9.88341 40.3896 12.7546 40.5553 13.6932 40.7899C14.6319 41.0246 14.8113 41.204 15.1012 41.4387C15.3911 41.6734 16.8543 42.5154 16.1227 43.1504C15.3911 43.7853 14.3696 41.066 13.9693 42.2807C13.569 43.4954 12.4509 44.6688 10.9325 44.2546C10.1733 44.02 9.63495 43.7025 9.75918 42.0461ZM9.59354 47.0706C11.1257 45.7454 13.3896 46.6151 13.8727 47.3053C14.2868 47.885 15.0322 47.5537 14.9908 48.2991C14.9494 49.0445 14.4386 48.6304 13.2791 48.9341C12.1196 49.2378 10.8221 50.77 10.0076 49.0031C9.59354 48.0783 9.30366 47.7608 9.59354 47.0706ZM6.36348 82.5323C5.7147 82.6841 4.52759 82.4218 3.79599 81.7869C3.06439 81.1519 3.17482 80.8206 3.97544 80.02C4.77605 79.2194 6.98464 78.6396 7.39875 78.8743C7.81286 79.1089 8.44783 80.8068 8.44783 80.8068C8.42022 82.0353 7.01225 82.3804 6.36348 82.5323ZM18.5659 83.9264C17.8757 84.9065 17.7377 85.1135 16.6334 86.0384C15.9432 86.5629 14.7009 87.2255 14.0383 86.3973C12.3129 84.451 14.0659 82.2838 14.8251 81.7869C15.5843 81.2761 17.7791 79.3712 18.7868 81.0691C19.7945 82.7669 19.2561 82.9602 18.5659 83.9402M26.3926 81.635C27.4141 82.1596 28.1871 82.5737 28.3942 83.3191C28.5046 84.1335 28.3389 84.8237 27.5245 85.3482C26.7101 85.8589 23.1902 85.2792 21.8512 83.4433C21.5199 82.9878 21.1196 82.1872 21.8926 81.6764C22.6656 81.1657 25.3573 81.1243 26.3926 81.6488M28.9739 76.1135C26.3788 76.4724 25.2055 74.1258 22.7761 73.3804C20.8711 73.1872 17.7929 74.3743 17.8343 75.451C17.8619 76.5276 19.3251 75.7546 19.3251 75.7546C19.3251 75.7546 21.8098 74.5813 23.1349 75.6994C23.9356 76.4034 24.5153 76.7899 24.0322 78.0322C23.5491 79.2746 20.6089 79.454 19.3803 79.0123C18.1518 78.5706 17.6549 76.0583 16.9785 76.9142C16.3021 77.77 15.6948 79.7301 13.9141 79.9786C13.0997 79.951 12.3405 79.3298 11.6089 79.5092C10.8773 79.6887 10.753 80.227 10.1181 79.6059C9.48311 78.9847 9.60734 77.9632 9.75918 77.2869C10.8911 75.2715 13.569 76.9694 15.2116 77.1488C15.6257 77.0246 15.6257 76.4724 15.5015 76.0583C14.5767 74.678 12.2576 73.7255 11.7469 73.7945C11.2362 73.8635 9.40029 74.3329 8.46163 74.3881C7.53679 74.4571 6.51532 74.4019 5.94936 74.2224C5.24538 73.9878 3.93403 73.6703 4.29292 72.1243C4.65182 70.5783 6.86041 71.1028 7.99231 71.2546C9.12421 71.4065 11.9126 72.4832 12.3129 72.8559C12.6994 73.2286 13.6104 73.1872 13.6794 72.4694C13.7484 71.7516 11.3742 69.1151 10.6288 68.9908C9.88341 68.8666 9.42789 68.0246 10.9463 67.0997C12.4647 66.1749 15.4877 67.5276 15.819 68.0246C16.1503 68.5215 16.6058 68.6872 16.6472 67.6381C16.6886 66.589 14.7837 65.954 14.273 64.5875C14.0245 63.7592 13.1549 62.8758 13.9279 61.8543C14.7009 60.8329 17.9862 62.6273 19.7668 62.5307C20.7331 62.2684 19.7945 61.4402 19.6702 61.1642C17.931 59.7562 15.7776 58.7623 13.569 59.7976C12.0644 60.3083 10.7254 62.1718 11.7193 63.704C12.7132 65.2362 10.6288 65.3053 10.1733 65.7056C9.71777 66.1059 9.52452 70.454 6.69476 68.6181C5.75611 67.9142 6.19783 66.8375 6.61194 66.0369C7.592 64.974 9.35887 65.1534 10.2009 64.0767C10.3527 63.5384 9.53832 63.3865 8.98618 63.3727C8.7101 63.3727 8.15795 63.635 8.03372 63.2209L8.61347 61.6059C7.53679 61.4402 5.79752 62.5169 5.19016 62.4755C4.5828 62.4341 4.51378 62.3237 4.38955 61.9234C5.67329 59.6319 9.55213 60.612 10.2699 60.6948C10.9877 60.7915 11.6227 60.9985 11.9126 60.4602C12.2024 60.0599 12.2024 59.7838 11.9402 59.3697C11.2638 59.3421 10.5736 59.6043 9.77298 59.3145C8.28219 59.135 6.86041 58.0031 6.29446 56.7746C5.72851 55.5461 7.27452 55.7117 8.10274 55.3114C10.1595 54.8145 11.0567 57.2853 13.0997 57.2025C13.4172 55.2976 10.6564 55.1872 11.1534 52.9372C11.6503 50.6872 12.8788 50.4663 13.9417 50.2869C15.0046 50.0936 17.0889 49.6795 18 51.0599C17.8343 52.5645 15.9294 52.385 15.6257 53.8758C16.9509 55.1319 18.7454 53.2408 19.8635 52.8819C20.9816 52.5231 22.7484 51.9985 23.6595 53.5169C24.4601 54.2209 23.342 55.6841 24.5567 55.9878C25.7853 55.7393 27.2346 54.3037 28.1319 54.4418C29.0291 54.566 28.6426 55.1319 28.1043 55.9464C27.5659 56.747 25.9785 57.9203 23.0521 56.6504C21.5613 56.4709 19.6426 56.9678 18.7868 58.5829C18.6349 59.1212 18.4831 59.7976 18.8834 60.3497C20.4984 60.8053 20.5537 58.4724 22.5828 59.066C24.6257 59.6596 25.4126 60.2255 26.4754 61.2056C26.8619 62.2961 26.8205 63.0415 26.2822 64.0629C25.7438 65.0706 24.8742 65.6366 24.3359 65.6504C23.7975 65.6642 23.48 65.6504 24.0874 64.8359C24.6948 64.0215 26.296 64.27 25.7576 63.2347C25.2193 62.1994 20.5261 63.5246 20.0291 63.9249C19.5322 64.3114 17.6687 65.6366 17.2408 67.1273C17.4892 68.3559 19.8221 67.0583 19.5184 68.9494C19.2285 70.0261 17.6825 69.9985 16.8819 70.7853C16.0813 71.5859 16.0813 72.3451 16.4264 72.8145C17.8895 74.4571 19.4632 70.9786 21.4785 71.8482C23.0659 73.9188 25.0261 71.655 27.0414 72.3727C28.2699 72.6764 29.8988 72.7178 30.3957 74.3605C30.3819 75.3129 29.6917 75.8513 29.0015 76.0997M23.3558 48.6304C21.4923 49.7761 20.3604 48.2853 18.6073 47.9816C18.0966 46.6013 18.8144 45.4003 19.9049 44.7516C21.6994 43.8405 25.3021 43.8129 25.73 45.4418C26.158 47.0706 25.2193 47.4847 23.3558 48.6442M26.4616 49.1135C27.7178 48.3129 29.6503 49.1273 29.4156 51.3635C29.3328 52.2056 28.5598 52.6059 28.0215 52.6887C27.4831 52.7715 25.8405 52.7715 25.454 51.8053C25.3435 50.839 25.6334 49.9003 26.4616 49.0997M25.2055 68.5491C25.0261 69.543 24.5291 69.9847 23.8113 70.1504C23.0935 70.316 22.0721 69.7638 21.796 69.4188C21.5061 69.0875 21.23 68.6872 21.6994 67.9142C22.1687 67.1412 25.5644 66.727 25.2193 68.5491M32.7975 57.8237C32.2868 61.8543 31.3481 65.8988 29.5261 68.3697C29.1672 68.8528 28.8497 69.1427 28.2423 68.839C27.773 68.6043 28.0767 67.928 28.0767 67.928C31.0859 61.6059 31.5276 54.5384 31.2791 47.3191C30.6027 41.4525 29.9264 35.0338 24.1426 32.3145C22.3757 31.8589 20.3466 31.8175 18.9524 33.2807C17.2822 35.0062 16.2745 37.0215 15.681 39.3267C14.9908 39.3129 14.8803 38.6227 15.0184 38.2224C15.2116 35.5031 16.9095 33.2255 19.1181 31.7761C21.727 30.6166 25.1227 30.8237 27.2623 32.3835C28.4632 33.2255 29.9402 34.4816 30.4509 35.9862C33.5567 42.9985 33.9294 50.2316 32.7975 57.8237ZM41.4938 56.1258C41.4662 56.2224 41.4248 56.3191 41.411 56.4019C41.2178 57.0507 40.9969 56.6642 40.9969 56.6642C40.7346 55.8359 40.9003 55.0353 41.3282 54.3589L41.7423 54.0967C42.1978 54.704 41.7423 55.4908 41.5076 56.1258M45.5245 54.9939C45.1242 54.704 43.4954 54.4003 44.1994 53.3375C44.0751 52.9234 44.3512 52.523 44.7653 52.6749C46.1457 52.2884 45.4279 53.7792 45.6764 54.6074C45.6764 54.7316 45.6764 54.8835 45.5245 55.0077M48.2438 55.339H47.8297L47.8573 54.2485L48.2576 54.3865L48.23 55.339H48.2438ZM55.8635 49.6519C55.6564 47.0706 54.6211 44.5859 52.6196 43.0399C51.5015 43.9648 52.9509 45.1381 53.365 46.1872C53.7791 47.2362 54.4831 52.4816 54.0138 53.4065C53.5445 54.3313 53.4754 53.4065 53.4754 53.4065C53.296 49.5829 52.7024 45.6212 50.0521 42.7086C49.7761 42.7086 49.5 42.9709 49.5 43.2332C51.0736 45.7178 51.2807 48.7132 51.3497 51.5844C51.3497 51.5844 51.5429 52.4264 50.7975 51.9709C50.0521 51.5154 50.4524 49.0997 49.8037 47.8712C49.4172 46.905 49.1825 45.4142 48.1058 45.1105C47.9264 46.7393 48.5751 48.52 48.658 50.4249C48.5061 50.9632 47.8297 50.5491 47.5675 50.4111C46.7807 49.3068 47.2086 48.3543 46.546 47.25C46.2975 46.1457 45.5107 44.2823 44.8481 44.3513C44.1718 44.4203 45.8558 47.9126 45.6764 49.9418C45.3865 50.3559 44.4202 50.4387 44.0337 50.1902C43.6472 49.9418 42.8328 45.4418 42.1288 44.6964C41.4248 43.951 41.411 44.793 41.5629 45.3727C41.7147 45.9525 43.3573 50.4525 40.7346 51.474C39.8098 50.4939 40.6794 48.0645 39.2024 47.2224C38.2086 49.2378 40.1825 51.5982 38.9126 53.7516C37.6564 55.3528 38.9126 57.9617 38.4294 59.0936C37.9325 60.2255 37.5322 60.7915 37.3803 61.1918C37.2147 56.6918 38.5813 50.4663 37.0491 45.9525C36.7868 45.5384 36.3865 45.2485 35.9724 45.6488C36.6626 51.2393 36.2484 57.3543 34.2193 62.7516C34.7024 59.2316 35.503 54.4694 35.1994 50.1212C35.1718 45.497 34.3297 40.8451 32.7837 36.7178C33.7362 36.8697 34.385 38.25 34.7715 39.2163C35.0199 40.4448 35.1165 41.8114 36.0552 42.6534L36.7592 41.9908C36.3865 40.3482 35.7515 38.2915 35.7929 36.7869C37.8221 37.5184 38.0429 39.8375 38.954 41.0798C39.6442 41.0798 39.658 40.6105 39.5061 39.7823C39.3405 38.885 38.4294 37.4908 38.6503 36.9939C38.8573 36.497 41.0383 38.0292 42.5291 39.9479C42.9708 38.8574 42.1702 37.7531 41.6595 36.7869C43.4402 36.2899 44.8896 37.9464 46.0905 39.2163C46.9325 38.2777 45.0552 37.0215 44.8067 35.9172C46.5874 35.1304 47.7745 37.0767 49.2653 37.5184C49.569 36.5798 48.3543 35.8758 47.9678 34.9096C47.9678 34.6335 48.3681 34.9096 48.6442 34.9096C49.0445 34.9234 49.4724 34.6611 49.6104 34.2608C50.6871 34.4264 51.7638 35.2685 52.7024 35.6964C53.1304 35.02 52.6748 34.2056 51.9294 33.7638C51.184 33.3359 50.9908 33.0599 51.2807 32.5215C52.6472 32.1488 53.8343 33.8053 54.8144 32.8804C54.8282 32.066 53.8896 31.7761 53.4892 31.2102C53.7791 30.5338 54.4555 30.5476 55.1319 30.5614C55.684 30.2991 56.1948 31.5415 56.7607 30.6028C56.9126 29.7884 55.6978 29.6227 55.8497 28.8083C56.4018 28.5599 56.8021 28.8359 57.23 28.2976L56.8435 27.3451C57.5475 26.8068 58.1963 27.6488 58.7623 26.8482L57.9754 25.6059C58.4034 24.9433 60.4187 25.9372 59.7699 24.5568C59.2316 24.1289 58.5552 24.2531 58.1549 23.701C58.3067 22.7485 60.7638 22.6657 58.8727 21.6718C59.3144 20.7332 60.3773 21.4234 60.9432 20.4847C60.5429 19.9326 59.8804 19.5046 59.204 19.6289C58.9417 18.9387 59.908 18.5522 60.4463 18.428C60.8604 18.1657 61.6748 18.3175 61.5506 17.6411C61.3021 16.951 60.2116 17.0614 59.5215 16.9096C59.6871 15.8329 60.9156 15.7224 61.0675 14.908C60.6672 14.4801 59.9908 14.6043 59.4386 14.7286C59.3282 13.6381 60.6948 13.4034 61.2469 12.727C60.9846 12.0369 60.0184 12.5614 59.6181 12.5614C59.342 12.5614 58.7899 13.224 58.6656 12.6718C58.4172 11.5813 60.6119 10.9464 59.5353 10.2424C58.9969 10.0905 58.1549 11.3053 58.0445 10.2148C57.7822 9.38654 59.3006 8.75157 58.5 8.18562C57.9616 8.18562 57.2577 9.38654 56.8712 8.42029C56.7469 7.86814 57.7132 7.3574 57.0368 6.92949C56.4984 6.92949 55.7945 8.13041 55.3942 7.16415C55.1457 6.19789 55.9877 5.25924 55.3251 4.56906C54.4969 4.81753 54.4693 6.04605 53.5169 6.17029C53.2546 5.61814 53.5445 4.80372 52.8681 4.65188C52.1917 4.76231 52.5782 5.72857 52.0261 5.99084C51.3497 5.70096 51.115 4.47243 51.6672 3.93409C52.0951 3.13348 52.9371 2.19483 53.8757 2.62274C54.138 3.17489 53.3098 3.42335 53.5721 3.83746C54.6488 4.40341 54.5521 2.91262 55.6426 2.94022C56.0429 3.35434 57.4095 3.11967 56.9816 3.92029C56.8435 4.18256 56.2914 4.44483 56.5537 4.87274C57.6166 5.99084 58.5 3.14728 59.411 4.92795C59.5353 5.61814 58.3067 5.71476 58.9693 6.41875C59.7837 6.70863 61.5644 5.93562 61.7991 7.56446C61.5092 8.1028 60.4463 7.39881 60.6948 8.35127C61.3573 8.91722 62.5859 8.66875 63.1104 9.49697C63.2485 9.77305 63.5107 10.1872 63.3589 10.4494C63.2208 10.7117 62.8067 10.4356 62.6687 10.8359C62.7653 12.0645 64.6978 11.4295 64.3803 13.0583C63.9662 13.1826 63.1656 12.6166 63.0138 13.431C62.8619 14.3835 63.9524 14.135 64.4908 14.5491C64.0629 15.2255 64.477 15.5016 64.7254 16.0537C64.1871 16.178 64.0491 15.7638 63.635 16.1642C63.3313 17.5307 66.3129 18 65.5951 19.6151C64.7945 19.1872 63.7178 18.2071 62.7377 19.1457C63.1104 20.5261 64.615 20.5537 65.4018 21.6718L66.1748 23.7286C64.9463 23.9632 63.8972 21.9065 62.6549 22.9556C64.1181 24.3635 65.7193 25.6197 65.8021 27.8007C64.7116 27.497 63.6764 25.4264 62.1856 25.3988C61.6334 26.1994 62.9724 26.9172 63.2208 27.4694C64.2837 28.8497 65.3328 30.1059 64.8911 31.8589C63.8144 31.155 63.0414 29.4985 61.5368 29.3329C61.1227 29.5951 61.385 30.1473 61.6472 30.2853C62.8481 31.6795 63.7454 33.474 63.842 35.3789C63.2899 35.5031 62.9172 34.5369 62.5169 33.9985C61.7162 33.2945 60.9432 31.7761 59.5767 31.7485C59.8113 33.2531 61.2883 34.3712 61.9371 35.8896C62.4478 36.9939 62.6825 38.4985 62.6549 39.5752C61.1779 38.7332 60.4325 35.724 58.4034 35.6688L58.2515 35.931C59.5629 38.2777 61.4126 40.6381 60.9294 43.6197H60.6672C59.7561 41.6872 58.8589 38.9402 56.5813 38.0706C56.6917 39.5614 57.8926 40.4172 58.2653 41.908C58.9141 43.5645 59.411 45.6212 58.8175 47.5123C57.5337 44.8896 56.7745 41.7562 54.0966 39.9203C53.6963 39.6442 53.2684 40.1688 53.2684 40.1688C55.5184 43.0813 56.7607 49.2792 56.5813 49.7761C56.4018 50.2731 55.8911 50.0246 55.9049 49.6243" fill="white"/>
<path d="M15.4188 56.2086C14.8529 56.5399 14.7563 57.4648 15.2532 57.8375C15.7501 58.2102 16.7578 57.6994 17.3099 57.2025C17.8621 56.7056 18.3866 55.6565 18.1658 55.408C17.6964 54.8835 15.9986 55.8774 15.4326 56.2086" fill="white"/>
</g>
</g>
<defs>
<clipPath id="clip0_74_4686">
<rect width="306.262" height="90" fill="white"/>
</clipPath>
</defs>
</svg>
