<svg width="84" height="84" viewBox="0 0 84 84" fill="none" xmlns="http://www.w3.org/2000/svg">
<rect width="84" height="84" fill="#4E6754"/>
<path d="M69.6044 56.1317C69.1244 55.4317 68.4644 54.8017 67.5444 54.7717C66.6244 54.7417 65.7644 55.1217 65.3444 55.9017C65.0344 56.3817 65.0244 57.0817 65.4044 57.5717C66.0844 58.1817 66.6944 57.1117 67.3944 57.1217C67.7844 57.1317 68.0944 57.3217 68.1644 57.9317C68.2144 58.3517 67.6944 59.0317 66.8444 59.1817C61.3644 60.1417 57.5344 52.3017 55.7044 50.9417C55.5144 50.8017 55.6144 50.3517 55.6144 50.3517C59.4844 45.4117 62.2744 39.5617 63.6044 33.2817C65.3544 25.7317 64.0944 16.6217 57.9944 11.6517C55.4844 9.63166 51.7444 9.54166 49.1444 10.9617C48.0144 11.7517 47.1344 12.5917 47.2944 14.0717C47.3544 14.5817 47.8544 15.2617 48.5444 15.3817C50.3244 15.2317 51.7144 14.6617 53.4744 15.5917C56.3944 17.4317 56.7944 21.0917 56.1344 24.3217C55.4444 28.3517 53.6044 31.1017 48.8944 33.4717C46.6444 34.6017 44.8044 34.7517 42.0044 34.5817C39.6344 34.4317 38.2644 33.8817 36.7044 33.0517C34.8744 31.1417 31.3444 30.4017 29.4844 30.8017C28.1744 31.0817 26.7144 32.4917 26.2144 33.1517C25.7144 33.8117 24.7944 36.1217 23.9644 37.8717C22.8844 37.8517 21.1844 38.2417 20.5844 39.1817C19.9844 40.1217 20.3444 41.3417 20.8144 42.1517C20.2044 43.0217 19.4144 43.3617 19.1844 44.4717C18.9544 45.5817 20.8344 46.8817 21.1944 47.0917C21.5544 47.3017 21.4644 48.0817 21.1644 48.4717C20.0744 48.6417 18.9044 48.2217 17.9944 48.9917C17.4844 49.4717 17.3744 50.1617 17.4544 50.8517C17.5344 51.5417 18.5144 51.8617 18.2044 52.6417C17.3144 53.0117 16.0644 53.5217 15.8044 54.0617C15.5444 54.6017 15.5744 54.8517 15.9644 55.5417C16.3644 56.2417 17.9244 55.9817 19.0144 56.1017C18.5044 56.9717 16.6144 57.6317 18.0544 59.1417C19.4944 60.6417 16.4544 60.4817 16.8044 62.1717C16.7844 62.9517 17.2644 63.5517 17.8444 63.9717C18.4244 64.3917 20.0744 64.5717 20.2944 64.8217C20.5144 65.0717 20.3844 65.4117 20.1744 65.7117C18.3044 65.6617 16.4244 65.9117 15.0944 67.6617C14.8844 68.3517 14.9944 68.7917 15.7344 69.8517C16.4744 70.9017 18.8544 71.1717 19.9544 70.6317C21.0644 70.0917 21.6644 68.7817 23.1444 68.8117C23.3444 68.8117 24.1444 68.8517 24.0344 69.3417C23.0344 70.0117 22.3044 71.8617 22.4744 72.6617C22.6444 73.4617 23.1144 74.2217 24.0144 74.3717C26.1744 74.7417 29.0044 72.9117 29.8944 71.6517C30.1244 71.3317 30.2144 71.5417 30.3844 71.6617C32.4944 73.2117 33.6244 73.3017 34.8944 72.8417C36.0844 72.4117 36.9744 71.8917 37.1044 70.5517C37.2444 69.2117 35.9744 67.9817 34.8344 67.6317C34.2844 67.4617 33.1244 67.8117 33.1444 67.1817C33.1644 66.5517 34.2444 65.8817 35.3444 66.0517C36.4444 66.2117 37.6344 65.3117 38.1444 64.3417C38.4644 63.4617 38.5044 62.0017 37.7044 61.7717C36.9044 61.5417 36.9244 61.3517 36.9344 60.8617C43.3644 59.9217 49.1544 56.7117 54.1944 52.0917C54.1944 52.0917 54.4044 52.1517 54.5844 52.3917C57.1844 56.0417 61.4144 62.1417 66.9044 60.9617C68.5344 60.6117 69.5444 59.5417 69.8244 58.3717C70.1044 57.2017 69.8744 56.7317 69.5944 56.1317M49.4744 13.9217L49.2744 14.0217C48.7844 13.8117 48.3144 13.0117 48.9144 12.5317C49.0144 12.4317 49.2144 12.3417 49.5144 12.3517C49.8044 12.7517 49.4844 13.4317 49.4744 13.9317M51.0544 13.8617C50.6644 13.6517 50.3744 13.1517 50.3944 12.6617C50.6044 12.0817 51.0144 11.6017 51.4144 11.4017C51.4944 12.2917 51.0844 12.9717 51.0644 13.8617M21.9444 40.0017C22.0344 38.8017 24.1144 38.9217 24.7944 39.0917C25.4744 39.2617 25.6044 39.3917 25.8144 39.5617C26.0244 39.7317 27.0844 40.3417 26.5544 40.8017C26.0244 41.2617 25.2844 39.2917 24.9944 40.1717C24.7044 41.0517 23.8944 41.9017 22.7944 41.6017C22.2444 41.4317 21.8544 41.2017 21.9444 40.0017ZM21.8244 43.6417C22.9344 42.6817 24.5744 43.3117 24.9244 43.8117C25.2244 44.2317 25.7644 43.9917 25.7344 44.5317C25.7044 45.0717 25.3344 44.7717 24.4944 44.9917C23.6544 45.2117 22.7144 46.3217 22.1244 45.0417C21.8244 44.3717 21.6144 44.1417 21.8244 43.6417ZM19.4844 69.3317C19.0144 69.4417 18.1544 69.2517 17.6244 68.7917C17.0944 68.3317 17.1744 68.0917 17.7544 67.5117C18.3344 66.9317 19.9344 66.5117 20.2344 66.6817C20.5344 66.8517 20.9944 68.0817 20.9944 68.0817C20.9744 68.9717 19.9544 69.2217 19.4844 69.3317ZM28.3244 70.3417C27.8244 71.0517 27.7244 71.2017 26.9244 71.8717C26.4244 72.2517 25.5244 72.7317 25.0444 72.1317C23.7944 70.7217 25.0644 69.1517 25.6144 68.7917C26.1644 68.4217 27.7544 67.0417 28.4844 68.2717C29.2144 69.5017 28.8244 69.6417 28.3244 70.3517M33.9944 68.6817C34.7344 69.0617 35.2944 69.3617 35.4444 69.9017C35.5244 70.4917 35.4044 70.9917 34.8144 71.3717C34.2244 71.7417 31.6744 71.3217 30.7044 69.9917C30.4644 69.6617 30.1744 69.0817 30.7344 68.7117C31.2944 68.3417 33.2444 68.3117 33.9944 68.6917M35.8644 64.6817C33.9844 64.9417 33.1344 63.2417 31.3744 62.7017C29.9944 62.5617 27.7644 63.4217 27.7944 64.2017C27.8144 64.9817 28.8744 64.4217 28.8744 64.4217C28.8744 64.4217 30.6744 63.5717 31.6344 64.3817C32.2144 64.8917 32.6344 65.1717 32.2844 66.0717C31.9344 66.9717 29.8044 67.1017 28.9144 66.7817C28.0244 66.4617 27.6644 64.6417 27.1744 65.2617C26.6844 65.8817 26.2444 67.3017 24.9544 67.4817C24.3644 67.4617 23.8144 67.0117 23.2844 67.1417C22.7544 67.2717 22.6644 67.6617 22.2044 67.2117C21.7444 66.7617 21.8344 66.0217 21.9444 65.5317C22.7644 64.0717 24.7044 65.3017 25.8944 65.4317C26.1944 65.3417 26.1944 64.9417 26.1044 64.6417C25.4344 63.6417 23.7544 62.9517 23.3844 63.0017C23.0144 63.0517 21.6844 63.3917 21.0044 63.4317C20.3344 63.4817 19.5944 63.4417 19.1844 63.3117C18.6744 63.1417 17.7244 62.9117 17.9844 61.7917C18.2444 60.6717 19.8444 61.0517 20.6644 61.1617C21.4844 61.2717 23.5044 62.0517 23.7944 62.3217C24.0744 62.5917 24.7344 62.5617 24.7844 62.0417C24.8344 61.5217 23.1144 59.6117 22.5744 59.5217C22.0344 59.4317 21.7044 58.8217 22.8044 58.1517C23.9044 57.4817 26.0944 58.4617 26.3344 58.8217C26.5744 59.1817 26.9044 59.3017 26.9344 58.5417C26.9644 57.7817 25.5844 57.3217 25.2144 56.3317C25.0344 55.7317 24.4044 55.0917 24.9644 54.3517C25.5244 53.6117 27.9044 54.9117 29.1944 54.8417C29.8944 54.6517 29.2144 54.0517 29.1244 53.8517C27.8644 52.8317 26.3044 52.1117 24.7044 52.8617C23.6144 53.2317 22.6444 54.5817 23.3644 55.6917C24.0844 56.8017 22.5744 56.8517 22.2444 57.1417C21.9144 57.4317 21.7744 60.5817 19.7244 59.2517C19.0444 58.7417 19.3644 57.9617 19.6644 57.3817C20.3744 56.6117 21.6544 56.7417 22.2644 55.9617C22.3744 55.5717 21.7844 55.4617 21.3844 55.4517C21.1844 55.4517 20.7844 55.6417 20.6944 55.3417L21.1144 54.1717C20.3344 54.0517 19.0744 54.8317 18.6344 54.8017C18.1944 54.7717 18.1444 54.6917 18.0544 54.4017C18.9844 52.7417 21.7944 53.4517 22.3144 53.5117C22.8344 53.5817 23.2944 53.7317 23.5044 53.3417C23.7144 53.0517 23.7144 52.8517 23.5244 52.5517C23.0344 52.5317 22.5344 52.7217 21.9544 52.5117C20.8744 52.3817 19.8444 51.5617 19.4344 50.6717C19.0244 49.7817 20.1444 49.9017 20.7444 49.6117C22.2344 49.2517 22.8844 51.0417 24.3644 50.9817C24.5944 49.6017 22.5944 49.5217 22.9544 47.8917C23.3144 46.2617 24.2044 46.1017 24.9744 45.9717C25.7444 45.8317 27.2544 45.5317 27.9144 46.5317C27.7944 47.6217 26.4144 47.4917 26.1944 48.5717C27.1544 49.4817 28.4544 48.1117 29.2644 47.8517C30.0744 47.5917 31.3544 47.2117 32.0144 48.3117C32.5944 48.8217 31.7844 49.8817 32.6644 50.1017C33.5544 49.9217 34.6044 48.8817 35.2544 48.9817C35.9044 49.0717 35.6244 49.4817 35.2344 50.0717C34.8444 50.6517 33.6944 51.5017 31.5744 50.5817C30.4944 50.4517 29.1044 50.8117 28.4844 51.9817C28.3744 52.3717 28.2644 52.8617 28.5544 53.2617C29.7244 53.5917 29.7644 51.9017 31.2344 52.3317C32.7144 52.7617 33.2844 53.1717 34.0544 53.8817C34.3344 54.6717 34.3044 55.2117 33.9144 55.9517C33.5244 56.6817 32.8944 57.0917 32.5044 57.1017C32.1144 57.1117 31.8844 57.1017 32.3244 56.5117C32.7644 55.9217 33.9244 56.1017 33.5344 55.3517C33.1444 54.6017 29.7444 55.5617 29.3844 55.8517C29.0244 56.1317 27.6744 57.0917 27.3644 58.1717C27.5444 59.0617 29.2344 58.1217 29.0144 59.4917C28.8044 60.2717 27.6844 60.2517 27.1044 60.8217C26.5244 61.4017 26.5244 61.9517 26.7744 62.2917C27.8344 63.4817 28.9744 60.9617 30.4344 61.5917C31.5844 63.0917 33.0044 61.4517 34.4644 61.9717C35.3544 62.1917 36.5344 62.2217 36.8944 63.4117C36.8844 64.1017 36.3844 64.4917 35.8844 64.6717M31.7944 44.7717C30.4444 45.6017 29.6244 44.5217 28.3544 44.3017C27.9844 43.3017 28.5044 42.4317 29.2944 41.9617C30.5944 41.3017 33.2044 41.2817 33.5144 42.4617C33.8244 43.6417 33.1444 43.9417 31.7944 44.7817M34.0444 45.1217C34.9544 44.5417 36.3544 45.1317 36.1844 46.7517C36.1244 47.3617 35.5644 47.6517 35.1744 47.7117C34.7844 47.7717 33.5944 47.7717 33.3144 47.0717C33.2344 46.3717 33.4444 45.6917 34.0444 45.1117M33.1344 59.2017C33.0044 59.9217 32.6444 60.2417 32.1244 60.3617C31.6044 60.4817 30.8644 60.0817 30.6644 59.8317C30.4544 59.5917 30.2544 59.3017 30.5944 58.7417C30.9344 58.1817 33.3944 57.8817 33.1444 59.2017M38.6344 51.4317C38.2644 54.3517 37.5844 57.2817 36.2644 59.0717C36.0044 59.4217 35.7744 59.6317 35.3344 59.4117C34.9944 59.2417 35.2144 58.7517 35.2144 58.7517C37.3944 54.1717 37.7144 49.0517 37.5344 43.8217C37.0444 39.5717 36.5544 34.9217 32.3644 32.9517C31.0844 32.6217 29.6144 32.5917 28.6044 33.6517C27.3944 34.9017 26.6644 36.3617 26.2344 38.0317C25.7344 38.0217 25.6544 37.5217 25.7544 37.2317C25.8944 35.2617 27.1244 33.6117 28.7244 32.5617C30.6144 31.7217 33.0744 31.8717 34.6244 33.0017C35.4944 33.6117 36.5644 34.5217 36.9344 35.6117C39.1844 40.6917 39.4544 45.9317 38.6344 51.4317ZM44.9344 50.2017C44.9144 50.2717 44.8844 50.3417 44.8744 50.4017C44.7344 50.8717 44.5744 50.5917 44.5744 50.5917C44.3844 49.9917 44.5044 49.4117 44.8144 48.9217L45.1144 48.7317C45.4444 49.1717 45.1144 49.7417 44.9444 50.2017M47.8544 49.3817C47.5644 49.1717 46.3844 48.9517 46.8944 48.1817C46.8044 47.8817 47.0044 47.5917 47.3044 47.7017C48.3044 47.4217 47.7844 48.5017 47.9644 49.1017C47.9644 49.1917 47.9644 49.3017 47.8544 49.3917M49.8244 49.6317H49.5244L49.5444 48.8417L49.8344 48.9417L49.8144 49.6317H49.8244ZM55.3444 45.5117C55.1944 43.6417 54.4444 41.8417 52.9944 40.7217C52.1844 41.3917 53.2344 42.2417 53.5344 43.0017C53.8344 43.7617 54.3444 47.5617 54.0044 48.2317C53.6644 48.9017 53.6144 48.2317 53.6144 48.2317C53.4844 45.4617 53.0544 42.5917 51.1344 40.4817C50.9344 40.4817 50.7344 40.6717 50.7344 40.8617C51.8744 42.6617 52.0244 44.8317 52.0744 46.9117C52.0744 46.9117 52.2144 47.5217 51.6744 47.1917C51.1344 46.8617 51.4244 45.1117 50.9544 44.2217C50.6744 43.5217 50.5044 42.4417 49.7244 42.2217C49.5944 43.4017 50.0644 44.6917 50.1244 46.0717C50.0144 46.4617 49.5244 46.1617 49.3344 46.0617C48.7644 45.2617 49.0744 44.5717 48.5944 43.7717C48.4144 42.9717 47.8444 41.6217 47.3644 41.6717C46.8744 41.7217 48.0944 44.2517 47.9644 45.7217C47.7544 46.0217 47.0544 46.0817 46.7744 45.9017C46.4944 45.7217 45.9044 42.4617 45.3944 41.9217C44.8844 41.3817 44.8744 41.9917 44.9844 42.4117C45.0944 42.8317 46.2844 46.0917 44.3844 46.8317C43.7144 46.1217 44.3444 44.3617 43.2744 43.7517C42.5544 45.2117 43.9844 46.9217 43.0644 48.4817C42.1544 49.6417 43.0644 51.5317 42.7144 52.3517C42.3544 53.1717 42.0644 53.5817 41.9544 53.8717C41.8344 50.6117 42.8244 46.1017 41.7144 42.8317C41.5244 42.5317 41.2344 42.3217 40.9344 42.6117C41.4344 46.6617 41.1344 51.0917 39.6644 55.0017C40.0144 52.4517 40.5944 49.0017 40.3744 45.8517C40.3544 42.5017 39.7444 39.1317 38.6244 36.1417C39.3144 36.2517 39.7844 37.2517 40.0644 37.9517C40.2444 38.8417 40.3144 39.8317 40.9944 40.4417L41.5044 39.9617C41.2344 38.7717 40.7744 37.2817 40.8044 36.1917C42.2744 36.7217 42.4344 38.4017 43.0944 39.3017C43.5944 39.3017 43.6044 38.9617 43.4944 38.3617C43.3744 37.7117 42.7144 36.7017 42.8744 36.3417C43.0244 35.9817 44.6044 37.0917 45.6844 38.4817C46.0044 37.6917 45.4244 36.8917 45.0544 36.1917C46.3444 35.8317 47.3944 37.0317 48.2644 37.9517C48.8744 37.2717 47.5144 36.3617 47.3344 35.5617C48.6244 34.9917 49.4844 36.4017 50.5644 36.7217C50.7844 36.0417 49.9044 35.5317 49.6244 34.8317C49.6244 34.6317 49.9144 34.8317 50.1144 34.8317C50.4044 34.8417 50.7144 34.6517 50.8144 34.3617C51.5944 34.4817 52.3744 35.0917 53.0544 35.4017C53.3644 34.9117 53.0344 34.3217 52.4944 34.0017C51.9544 33.6917 51.8144 33.4917 52.0244 33.1017C53.0144 32.8317 53.8744 34.0317 54.5844 33.3617C54.5944 32.7717 53.9144 32.5617 53.6244 32.1517C53.8344 31.6617 54.3244 31.6717 54.8144 31.6817C55.2144 31.4917 55.5844 32.3917 55.9944 31.7117C56.1044 31.1217 55.2244 31.0017 55.3344 30.4117C55.7344 30.2317 56.0244 30.4317 56.3344 30.0417L56.0544 29.3517C56.5644 28.9617 57.0344 29.5717 57.4444 28.9917L56.8744 28.0917C57.1844 27.6117 58.6444 28.3317 58.1744 27.3317C57.7844 27.0217 57.2944 27.1117 57.0044 26.7117C57.1144 26.0217 58.8944 25.9617 57.5244 25.2417C57.8444 24.5617 58.6144 25.0617 59.0244 24.3817C58.7344 23.9817 58.2544 23.6717 57.7644 23.7617C57.5744 23.2617 58.2744 22.9817 58.6644 22.8917C58.9644 22.7017 59.5544 22.8117 59.4644 22.3217C59.2844 21.8217 58.4944 21.9017 57.9944 21.7917C58.1144 21.0117 59.0044 20.9317 59.1144 20.3417C58.8244 20.0317 58.3344 20.1217 57.9344 20.2117C57.8544 19.4217 58.8444 19.2517 59.2444 18.7617C59.0544 18.2617 58.3544 18.6417 58.0644 18.6417C57.8644 18.6417 57.4644 19.1217 57.3744 18.7217C57.1944 17.9317 58.7844 17.4717 58.0044 16.9617C57.6144 16.8517 57.0044 17.7317 56.9244 16.9417C56.7344 16.3417 57.8344 15.8817 57.2544 15.4717C56.8644 15.4717 56.3544 16.3417 56.0744 15.6417C55.9844 15.2417 56.6844 14.8717 56.1944 14.5617C55.8044 14.5617 55.2944 15.4317 55.0044 14.7317C54.8244 14.0317 55.4344 13.3517 54.9544 12.8517C54.3544 13.0317 54.3344 13.9217 53.6444 14.0117C53.4544 13.6117 53.6644 13.0217 53.1744 12.9117C52.6844 12.9917 52.9644 13.6917 52.5644 13.8817C52.0744 13.6717 51.9044 12.7817 52.3044 12.3917C52.6144 11.8117 53.2244 11.1317 53.9044 11.4417C54.0944 11.8417 53.4944 12.0217 53.6844 12.3217C54.4644 12.7317 54.3944 11.6517 55.1844 11.6717C55.4744 11.9717 56.4644 11.8017 56.1544 12.3817C56.0544 12.5717 55.6544 12.7617 55.8444 13.0717C56.6144 13.8817 57.2544 11.8217 57.9144 13.1117C58.0044 13.6117 57.1144 13.6817 57.5944 14.1917C58.1844 14.4017 59.4744 13.8417 59.6444 15.0217C59.4344 15.4117 58.6644 14.9017 58.8444 15.5917C59.3244 16.0017 60.2144 15.8217 60.5944 16.4217C60.6944 16.6217 60.8844 16.9217 60.7744 17.1117C60.6744 17.3017 60.3744 17.1017 60.2744 17.3917C60.3444 18.2817 61.7444 17.8217 61.5144 19.0017C61.2144 19.0917 60.6344 18.6817 60.5244 19.2717C60.4144 19.9617 61.2044 19.7817 61.5944 20.0817C61.2844 20.5717 61.5844 20.7717 61.7644 21.1717C61.3744 21.2617 61.2744 20.9617 60.9744 21.2517C60.7544 22.2417 62.9144 22.5817 62.3944 23.7517C61.8144 23.4417 61.0344 22.7317 60.3244 23.4117C60.5944 24.4117 61.6844 24.4317 62.2544 25.2417L62.8144 26.7317C61.9244 26.9017 61.1644 25.4117 60.2644 26.1717C61.3244 27.1917 62.4844 28.1017 62.5444 29.6817C61.7544 29.4617 61.0044 27.9617 59.9244 27.9417C59.5244 28.5217 60.4944 29.0417 60.6744 29.4417C61.4444 30.4417 62.2044 31.3517 61.8844 32.6217C61.1044 32.1117 60.5444 30.9117 59.4544 30.7917C59.1544 30.9817 59.3444 31.3817 59.5344 31.4817C60.4044 32.4917 61.0544 33.7917 61.1244 35.1717C60.7244 35.2617 60.4544 34.5617 60.1644 34.1717C59.5844 33.6617 59.0244 32.5617 58.0344 32.5417C58.2044 33.6317 59.2744 34.4417 59.7444 35.5417C60.1144 36.3417 60.2844 37.4317 60.2644 38.2117C59.1944 37.6017 58.6544 35.4217 57.1844 35.3817L57.0744 35.5717C58.0244 37.2717 59.3644 38.9817 59.0144 41.1417H58.8244C58.1644 39.7417 57.5144 37.7517 55.8644 37.1217C55.9444 38.2017 56.8144 38.8217 57.0844 39.9017C57.5544 41.1017 57.9144 42.5917 57.4844 43.9617C56.5544 42.0617 56.0044 39.7917 54.0644 38.4617C53.7744 38.2617 53.4644 38.6417 53.4644 38.6417C55.0944 40.7517 55.9944 45.2417 55.8644 45.6017C55.7344 45.9617 55.3644 45.7817 55.3744 45.4917" fill="white"/>
</svg>
