<?xml version="1.0" encoding="UTF-8"?><svg id="Layer_1" xmlns="http://www.w3.org/2000/svg" viewBox="0 0 128.05 100.6"><defs><style>.cls-1{fill:#441116;stroke-width:0px;}</style></defs><path class="cls-1" d="M22.17,60.91c-5.17,1.81-11.27,3.35-15.92,6.28-2.81,2.06-5.89,5.56-5.14,9.26.45,1.77,2.05,3,3.52,4.14,14.71,10.65,36.46,14.24,54.33,14.62,15.2.32,30.57-1.01,45.45-4.21,8.66-2.26,19.99-4.42,23.16-14.04,1.5-5.79-6.73-9.39-11.22-10.62,1.87.4,3.68,1.07,5.37,1.99,2.47,1.32,5.29,2.93,6.16,5.8,1.12,4.7-3.36,9.5-7.06,11.8-11.88,6.22-25.74,8.01-38.93,9.32-15.22,1.56-30.74,1.5-45.81-1.41-11.2-2.31-22.59-5.77-31.82-12.75-3.83-2.66-5.12-6.05-2.29-10.11,2.14-3.31,5.66-5.29,9.3-6.53,3.03-1.21,7.74-2.54,10.91-3.53h0Z"/><path class="cls-1" d="M103.46,62.04c2.57-.26,5.12.52,7.25,1.94-2.6-.12-4.94-.85-7.25-1.94h0Z"/><path class="cls-1" d="M0,72.81s0,0,0,0,0,0,0,0H0Z"/><path class="cls-1" d="M.78,71.55c-1.6,3.3-.07,7.02,1.95,9.76,2.54,3.44,6.2,6.17,9.86,8.31,7.5,4.36,16.08,6.46,24.57,7.88,9.91,1.65,19.98,2.79,30.03,3.06s20.03-.48,29.73-2.93c8.89-2.25,17.48-5.94,24.9-11.36.93-.68,1.83-1.38,2.72-2.11.41-.33-.11-.97-.52-.63-6.7,5.49-14.53,9.44-22.77,12.04-8.8,2.78-18.02,4-27.23,4.22-10.28.24-20.55-.76-30.72-2.14-8.19-1.12-16.43-2.55-24.13-5.64-3.77-1.51-7.39-3.45-10.63-5.92-3.51-2.68-7.47-6.42-7.87-11.11-.1-1.12.1-2.24.55-3.26.12-.27-.3-.39-.43-.14h0Z"/><path class="cls-1" d="M46.17,96.88c-.06-.11-.13-.22-.19-.32-.02-.03-.06,0-.04.03.07.1.14.21.2.31,0,.02.03,0,.03-.01h0Z"/><path class="cls-1" d="M45.43,96.39c.52.46,1.04.92,1.56,1.38.14.13.36-.07.22-.2-1.07-1.05-2.27-1.97-3.53-2.8l-.19.29c1.42.82,2.53,2.04,3.63,3.23.19.21.5-.09.32-.3-.41-.47-.83-.94-1.24-1.41l-.3.33c.67.51,1.34,1.03,2,1.54l.23-.39c-.4-.15-.75-.37-1.04-.67l-.31.34c.39.3.79.59,1.18.89l.24-.4c-.36-.18-.72-.35-1.09-.53-.24-.12-.47.18-.28.38.13.14.26.27.4.41.22.22.53-.13.32-.35-1.29-1.43-2.81-2.63-4.52-3.53l-.23.44c2.21.91,4.21,2.25,6.2,3.57l.27-.42c-1.44-.82-2.77-1.8-3.98-2.94l-.33.37c1.57.97,3.14,1.94,4.7,2.91.28.17.53-.25.27-.43-1.24-.85-2.44-1.75-3.61-2.7-.25-.2-.61.14-.36.36,1.3,1.12,2.74,2.05,4.29,2.77l.19-.47c-.78-.23-1.56-.47-2.34-.7-.25-.07-.42.26-.24.43.39.39.85.67,1.37.87l.12-.5c-.34-.09-.68-.19-1.02-.28-.28-.08-.43.33-.18.47.19.11.38.22.57.33l.18-.47c-1.74-.64-2.68-2.47-4.32-3.3l-.18.48c.6.19,1.21.28,1.84.27.28,0,.34-.48.05-.51s-.58-.05-.86-.08c-.32-.03-.45.45-.11.5.52.08,1.03.16,1.55.24.33.05.42-.4.11-.5-.23-.08-.47-.15-.7-.23-.3-.1-.39.33-.17.48,1.74,1.15,3.48,2.31,5.22,3.46l.28-.44c-1.51-.88-3.07-1.81-4.05-3.3l-.37.37c1.65,1.39,3.33,2.77,5.31,3.69.27.12.51-.3.25-.46-1.63-.99-3.15-2.16-4.52-3.5l-.36.39c1.77,1.4,3.56,2.79,5.57,3.83l.23-.48c-2.05-.92-3.9-2.27-5.41-3.93l-.27.44c.32.13.65.25.97.38l.15-.52c-.61-.17-1.21-.34-1.82-.51l-.07.53c.96.03,1.86.5,2.42,1.28l.43-.33c-.26-.26-.44-.55-.56-.9l-.5.21c.9,1.28,1.97,2.42,3.21,3.38.27.21.64-.15.38-.4-1.67-1.58-3.49-3.24-5.84-3.66-.35-.06-.46.48-.11.54,2.24.4,3.97,2.01,5.57,3.52l.38-.4c-1.19-.93-2.25-2.02-3.12-3.26-.17-.24-.6-.1-.5.21.15.43.37.81.7,1.13.21.21.61-.07.43-.33-.68-.94-1.73-1.51-2.89-1.55-.31,0-.37.45-.07.53.6.17,1.21.34,1.81.51.34.1.47-.4.15-.52s-.65-.25-.97-.37c-.26-.1-.44.26-.27.44,1.58,1.73,3.5,3.12,5.64,4.07.27.12.5-.34.23-.48-2.01-1.04-3.79-2.43-5.56-3.82-.23-.18-.57.18-.36.39,1.4,1.36,2.94,2.57,4.61,3.58l.25-.46c-1.92-.89-3.56-2.26-5.17-3.61-.24-.2-.53.13-.37.37,1.03,1.56,2.67,2.53,4.26,3.45.25.15.52-.27.28-.44-1.78-1.17-3.55-2.35-5.32-3.52l-.17.48c.23.08.47.15.7.23l.11-.5c-.52-.08-1.03-.16-1.55-.24l-.11.5c.29.03.57.05.86.08l.05-.51c-.58,0-1.15-.08-1.71-.26-.28-.09-.43.35-.18.48,1.68.85,2.63,2.68,4.43,3.35.28.1.42-.33.18-.47-.19-.11-.38-.22-.57-.33l-.18.47c.34.09.68.19,1.02.28s.42-.38.12-.5c-.43-.16-.81-.42-1.13-.74l-.24.43c.78.23,1.56.47,2.34.7.27.08.45-.35.19-.47-1.51-.7-2.92-1.6-4.18-2.68l-.36.36c1.19.98,2.43,1.9,3.7,2.77l.27-.43c-1.56-.96-3.13-1.93-4.69-2.9-.23-.14-.54.17-.33.37,1.23,1.17,2.6,2.19,4.08,3.03.28.16.55-.24.27-.42-2.02-1.34-4.06-2.67-6.3-3.62-.25-.11-.48.3-.23.44,1.68.9,3.2,2.06,4.48,3.47l.32-.35c-.13-.13-.26-.27-.39-.4l-.28.38c.36.17.71.34,1.07.51.27.13.49-.22.24-.4-.39-.29-.78-.58-1.16-.87-.21-.16-.49.15-.31.34.35.36.75.62,1.22.79.24.09.44-.23.23-.39-.66-.5-1.32-1-1.98-1.5-.23-.17-.49.11-.3.33.41.46.82.92,1.23,1.39l.32-.3c-1.14-1.22-2.34-2.42-3.8-3.25-.17-.1-.35.19-.19.29,1.26.81,2.42,1.73,3.53,2.73l.19-.23c-.54-.44-1.08-.88-1.62-1.33-.11-.09-.24.09-.13.18h0Z"/><path class="cls-1" d="M31.28,92.42c1.91,1.72,3.95,3.31,5.96,4.92l.27-.39c-2.35-1.37-4.51-3.07-6.39-5.03-.22-.23-.59.08-.38.33,1.19,1.39,2.49,2.68,3.89,3.86l.3-.41c-1.93-1.08-3.68-2.44-5.19-4.06l-.37.34c1.26,1.35,2.59,2.64,4,3.85.25.22.59-.15.35-.38-.74-.71-1.49-1.41-2.22-2.13l-.37.34c1.26,1.2,2.67,2.22,4.2,3.04.29.16.6-.25.31-.43-1.81-1.11-3.38-2.54-4.65-4.24-.2-.27-.62.05-.42.32,1.08,1.45,2.28,2.82,3.59,4.07l.36-.38c-1.88-1.26-3.66-2.66-5.34-4.18-.25-.23-.56.14-.35.38,1.12,1.29,2.33,2.49,3.63,3.6l.27-.44c-1.37-.84-2.68-1.8-3.9-2.84l-.33.4c1.71,1.35,3.53,2.57,5.43,3.63l.24-.47c-3.03-.83-4.73-3.98-7.76-4.83-.33-.09-.49.41-.16.51.88.26,1.76.52,2.63.79l.19-.49c-.63-.17-1.25-.34-1.88-.5-.32-.09-.5.33-.2.49.86.44,1.72.88,2.57,1.32l.2-.49c-1.11-.34-2.22-.68-3.32-1.02-.32-.1-.53.39-.2.49,1.11.34,2.22.68,3.32,1.02.32.1.5-.33.2-.49-.86-.44-1.72-.88-2.58-1.32l-.2.49c.63.17,1.25.34,1.88.51.32.09.52-.39.19-.49-.89-.27-1.78-.54-2.67-.81l-.16.51c3.01.86,4.7,4,7.74,4.82.27.07.52-.32.24-.47-1.9-1.05-3.7-2.25-5.4-3.6-.26-.21-.59.19-.33.4,1.26,1.08,2.6,2.05,4.02,2.91.26.16.49-.25.27-.44-1.29-1.11-2.5-2.3-3.62-3.58l-.35.38c1.69,1.53,3.49,2.95,5.38,4.23.24.16.58-.17.36-.38-1.3-1.26-2.5-2.6-3.58-4.06l-.42.32c1.3,1.74,2.92,3.22,4.76,4.36l.31-.43c-1.5-.8-2.89-1.78-4.13-2.94-.23-.22-.61.11-.37.34.76.72,1.5,1.45,2.25,2.17l.35-.38c-1.39-1.19-2.72-2.46-3.97-3.8-.22-.24-.59.1-.37.34,1.54,1.67,3.34,3.08,5.32,4.18.25.14.52-.22.3-.41-1.39-1.17-2.68-2.44-3.86-3.82l-.38.33c1.93,2.01,4.14,3.74,6.55,5.13.23.13.49-.22.27-.39-2.02-1.6-4.02-3.26-6.14-4.72-.11-.08-.24.07-.14.16h0Z"/><path class="cls-1" d="M28.3,92.7c-1.24-.48-2.48-.96-3.74-1.42l-.13.34c.88.3,1.76.59,2.63.89.24.08.39-.27.15-.36-1.29-.5-2.58-1-3.87-1.51l-.13.39c1.06.18,2.1.48,3.1.9l.15-.4c-1.31-.4-2.61-.79-3.92-1.19-.24-.07-.39.32-.15.42,1.26.49,2.51.99,3.77,1.48l.16-.43c-1.5-.52-3.01-1.04-4.52-1.55-.25-.09-.42.34-.17.44,2.03.85,4.06,1.71,6.09,2.56l.16-.45c-2.25-.64-4.43-1.47-6.53-2.47l-.21.43c2.31,1.06,4.63,2.11,6.94,3.17l.19-.43c-2.42-.99-4.9-1.84-7.42-2.52-.29-.08-.43.34-.14.45,2.33.9,4.65,1.8,6.98,2.7l.12-.46c-2.44-.9-4.88-1.8-7.32-2.7-.29-.11-.49.32-.2.45,2.33.98,4.65,1.96,6.98,2.95l.16-.47c-2.43-.85-4.86-1.7-7.3-2.55-.27-.09-.45.33-.2.46,2.26,1.23,4.65,2.21,7.12,2.91.27.08.46-.35.19-.47-2.2-.92-4.4-1.84-6.59-2.77-.3-.13-.55.31-.24.45,1.61.76,3.22,1.53,4.83,2.29l.21-.48c-1.7-.75-3.39-1.49-5.09-2.24-.32-.14-.47.37-.16.51,1.01.46,2.02.92,3.03,1.38l.13-.51c-1.14-.28-2.28-.55-3.42-.83-.29-.07-.41.4-.14.5,1.09.42,2.19.85,3.28,1.27.27.1.51-.31.25-.46-.41-.23-.83-.46-1.24-.7l-.24.47c2.88,1.35,5.9,2.41,9,3.14.28.07.5-.36.21-.5-1.53-.71-3.07-1.43-4.6-2.14l-.16.51c1.66.74,3.39,1.33,5.15,1.75.32.08.51-.38.18-.5-1.42-.53-2.83-1.05-4.25-1.58l-.2.49c1.18.38,2.35.76,3.53,1.14.32.1.51-.32.21-.48-.91-.49-1.82-.99-2.74-1.48l-.22.47c1.32.67,2.63,1.33,3.94,2,.31.16.49-.32.2-.48-.72-.42-1.43-.83-2.15-1.25l-.22.47c.63.32,1.26.63,1.89.95.31.15.5-.28.23-.46-1.35-.91-2.71-1.82-4.06-2.74l-.25.44c.57.36,1.15.71,1.72,1.08l.27-.44c-.64-.27-1.28-.53-1.92-.8-.26-.11-.52.26-.27.44.63.45,1.25.9,1.88,1.35l.28-.43c-2.72-1.3-5.44-2.58-8.17-3.85l-.14.5c.76.07,1.52.14,2.29.21.28.03.43-.42.13-.51-1.68-.46-3.36-.93-5.04-1.39l-.17.51c1.16.32,2.31.64,3.47.95.28.08.5-.35.22-.49-1.7-.81-3.47-1.48-5.29-1.99-.31-.09-.45.33-.2.5,1.55,1.05,3.19,1.97,4.9,2.75l.26-.48c-1.93-.81-3.85-1.61-5.78-2.42-.32-.13-.58.34-.26.48,1.91.84,3.82,1.68,5.73,2.52l.25-.49c-2.31-.88-4.62-1.76-6.93-2.64-.33-.13-.56.34-.24.5,1.97.96,3.94,1.92,5.91,2.88l.23-.51c-2.23-.92-4.4-1.99-6.48-3.22-.28-.17-.51.27-.29.47,1.93,1.69,4.15,3.04,6.54,3.97.34.13.55-.37.22-.52-2.32-1-4.59-2.11-6.81-3.33-.28-.15-.54.31-.27.48,2.29,1.53,4.76,2.78,7.36,3.68.35.12.52-.35.21-.52-1.36-.72-2.65-1.57-3.86-2.52l-.23.48c1.88.5,3.74,1.1,5.55,1.81.29.11.47-.34.21-.49-1.27-.76-2.55-1.53-3.82-2.29l-.29.46c1.25.57,2.5,1.15,3.76,1.72l.16-.51c-.92-.36-1.85-.71-2.77-1.07-.32-.12-.49.38-.17.51.93.36,1.85.72,2.78,1.08.33.13.47-.37.16-.51-1.21-.56-2.42-1.11-3.63-1.67-.3-.14-.59.27-.29.46,1.28.77,2.55,1.53,3.83,2.3l.21-.49c-1.83-.71-3.7-1.33-5.6-1.83-.26-.07-.44.31-.23.48,1.25,1,2.6,1.88,4.01,2.63l.21-.52c-2.55-.9-4.98-2.1-7.23-3.61l-.27.48c2.22,1.21,4.49,2.32,6.8,3.32l.22-.52c-2.35-.91-4.51-2.23-6.4-3.89l-.29.47c2.08,1.23,4.24,2.3,6.47,3.21.33.14.55-.35.23-.51-1.97-.96-3.93-1.91-5.9-2.87l-.24.5c2.31.88,4.61,1.76,6.92,2.64.32.12.58-.35.25-.49-1.91-.84-3.82-1.68-5.73-2.51l-.26.48c1.92.8,3.85,1.61,5.77,2.41.32.13.59-.33.26-.48-1.7-.78-3.34-1.7-4.89-2.74l-.2.5c1.77.49,3.49,1.13,5.14,1.92l.22-.49c-1.15-.32-2.3-.63-3.45-.95-.33-.09-.5.42-.17.51,1.67.46,3.34.92,5.01,1.37l.13-.51c-.76-.07-1.52-.14-2.27-.2-.29-.03-.41.37-.14.5,2.72,1.27,5.44,2.54,8.15,3.84.26.12.52-.26.28-.43-.63-.45-1.25-.9-1.88-1.35l-.27.44c.64.27,1.28.53,1.92.8.32.13.49-.31.21-.48-.58-.36-1.16-.72-1.74-1.08-.28-.17-.52.26-.25.44,1.36.92,2.72,1.84,4.08,2.76l.23-.46c-.63-.32-1.27-.64-1.9-.96-.3-.15-.5.31-.22.47.72.42,1.44.84,2.16,1.25l.2-.48c-1.31-.66-2.62-1.33-3.93-1.99-.3-.15-.51.31-.22.47.92.5,1.83.99,2.75,1.49l.21-.48c-1.18-.38-2.36-.77-3.54-1.15-.32-.1-.52.37-.2.49,1.42.53,2.84,1.06,4.26,1.59l.18-.5c-1.78-.43-3.51-1.02-5.18-1.77-.32-.14-.47.37-.16.51,1.5.7,2.99,1.4,4.48,2.1l.21-.5c-3.08-.74-6.09-1.78-8.96-3.12-.27-.13-.5.32-.24.47.41.23.82.46,1.24.69l.25-.46c-1.09-.42-2.18-.84-3.26-1.26l-.14.5c1.14.28,2.29.56,3.43.84.3.07.39-.39.13-.51-1.02-.47-2.04-.93-3.06-1.4l-.16.51c1.68.74,3.36,1.47,5.04,2.21.31.14.51-.34.21-.48-1.6-.75-3.2-1.51-4.8-2.26l-.24.45c2.2.92,4.39,1.84,6.59,2.76l.19-.47c-2.43-.69-4.78-1.65-7-2.86l-.2.46c2.42.84,4.85,1.69,7.27,2.53.31.11.45-.35.16-.47-2.31-.97-4.63-1.95-6.94-2.92l-.2.45c2.47.91,4.93,1.81,7.4,2.72.29.11.4-.35.12-.46-2.32-.9-4.63-1.79-6.95-2.69l-.14.45c2.53.69,5.01,1.53,7.44,2.53.25.1.43-.32.19-.43-2.32-1.06-4.64-2.13-6.97-3.2-.28-.13-.5.3-.21.43,2.14,1.03,4.36,1.87,6.65,2.51.26.07.42-.34.16-.45-2.03-.85-4.06-1.7-6.09-2.55l-.17.44c1.49.51,2.98,1.02,4.47,1.52.28.1.44-.33.16-.43-1.24-.48-2.48-.96-3.72-1.44l-.15.42c1.29.39,2.58.77,3.87,1.16.26.08.41-.3.15-.4-1.02-.42-2.08-.72-3.16-.9-.22-.04-.36.3-.13.39,1.3.5,2.6,1,3.9,1.49l.15-.36c-.89-.29-1.77-.58-2.66-.86-.22-.07-.35.26-.13.34,1.26.44,2.52.85,3.79,1.25.11.04.19-.13.07-.17h0Z"/><path class="cls-1" d="M12.4,87.3c1.42.11,2.82.33,4.19.69l.09-.28c-1.34-.33-2.68-.65-4.01-.97-.24-.06-.31.3-.08.37,1.22.37,2.43.75,3.65,1.11.28.08.46-.33.18-.42-1.08-.35-2.16-.71-3.25-1.06-.25-.08-.44.31-.2.42,1.08.51,2.16,1.02,3.25,1.52l.21-.44c-1.24-.52-2.48-1.04-3.72-1.55l-.18.46c1.4.45,2.81.9,4.21,1.35l.13-.49c-2.05-.53-4.04-1.25-5.94-2.15-.3-.14-.53.32-.23.46,1.06.51,2.12,1.02,3.18,1.53l.22-.47c-1.59-.65-3.11-1.45-4.55-2.39l-.21.46c.99.19,1.93.52,2.83.98l.2-.48c-1.35-.39-2.62-.99-3.78-1.78l-.25.46c1.75.92,3.5,1.85,5.25,2.77l.24-.47c-2.69-1.25-5.33-2.61-7.91-4.07l-.24.47c.95.45,1.89.91,2.84,1.36.27.13.51-.33.24-.47-1.09-.57-2.19-1.13-3.28-1.7l-.24.47c.34.13.67.26,1.01.39s.48-.37.17-.51c-1.48-.65-2.74-1.68-3.69-2.99l-.34.41c1.67.78,3.22,1.77,4.66,2.92l.24-.51c-1.19-.34-2.27-.93-3.19-1.75l-.35.45c1.01.71,2.03,1.43,3.04,2.14l.3-.49c-.99-.56-1.97-1.11-2.96-1.67-.33-.19-.58.27-.3.49,3.19,2.43,6.5,4.7,9.94,6.76l.28-.52c-1.53-.8-3.06-1.6-4.58-2.4l-.24.52c2.38.89,4.76,1.78,7.14,2.67.34.13.53-.4.19-.53-1.1-.42-2.2-.84-3.31-1.26-.34-.13-.53.38-.2.53,1.13.5,2.25.99,3.38,1.49l.2-.53c-1.63-.43-3.2-1.05-4.69-1.84l-.21.52c1.19.63,2.38,1.26,3.57,1.9l.22-.52c-1.69-.52-3.3-1.23-4.81-2.13l-.22.51c1.18.62,2.36,1.24,3.54,1.86l.22-.52c-1.2-.35-2.32-.91-3.33-1.65l-.34.45c1.08.67,2.16,1.33,3.25,2l.27-.49c-1.59-.61-3.1-1.39-4.51-2.35l-.33.46c1.31.74,2.62,1.48,3.92,2.22.31.18.64-.27.32-.47-.94-.58-1.87-1.15-2.81-1.72-.31-.19-.62.22-.34.45,2.65,2.11,5.52,4.34,9.02,4.66.29.03.39-.37.17-.53-1.3-.89-2.6-1.78-3.89-2.68l-.24.47c1.2.35,2.39.69,3.59,1.04.32.09.51-.36.19-.49-1.34-.54-2.67-1.07-4.01-1.61l-.2.49c.96.26,1.92.52,2.88.78.33.09.5-.36.19-.5-.6-.26-1.19-.52-1.79-.77-.27-.12-.51.33-.24.47,1.33.68,2.65,1.36,3.98,2.04l.21-.49c-.86-.18-1.72-.36-2.58-.54-.3-.06-.46.33-.2.5.9.58,1.79,1.16,2.69,1.74l.2-.5c-4.03-1.45-7.86-3.44-11.35-5.91-1-.71-1.97-1.46-2.9-2.24l-.31.45c1.19.47,2.22,1.22,3.01,2.22l.38-.41c-1.83-1.3-3.67-2.6-5.5-3.91-.26-.19-.61.24-.35.45,2.36,1.9,4.73,3.8,7.09,5.69.31.25.73-.2.42-.45-2.38-1.9-4.77-3.8-7.16-5.69l-.3.49c1.82,1.29,3.64,2.58,5.47,3.87.26.18.59-.16.38-.41-.84-1.05-1.95-1.87-3.21-2.35-.27-.1-.56.24-.31.45,3.36,2.78,7.08,5.12,11.07,6.9,1.12.5,2.26.96,3.42,1.37.3.11.44-.34.2-.5-.9-.58-1.79-1.16-2.69-1.74l-.2.5c.86.18,1.72.36,2.57.54.28.06.5-.35.21-.49-1.32-.67-2.63-1.35-3.95-2.02l-.24.47c.59.26,1.18.51,1.78.77l.19-.5c-.95-.26-1.91-.51-2.86-.77-.32-.09-.52.36-.2.49,1.34.54,2.68,1.08,4.01,1.62l.19-.49c-1.2-.35-2.4-.7-3.6-1.05-.28-.08-.5.29-.24.47,1.3.91,2.59,1.81,3.89,2.73l.17-.53c-3.36-.35-6.15-2.51-8.7-4.55l-.34.45c.94.58,1.88,1.16,2.82,1.73l.32-.47c-1.31-.74-2.61-1.48-3.92-2.22-.31-.18-.64.25-.33.46,1.45.99,3,1.8,4.64,2.42.29.11.54-.32.27-.49-1.08-.66-2.16-1.33-3.24-1.99-.3-.19-.64.23-.34.45,1.04.77,2.21,1.35,3.45,1.71.34.1.54-.35.22-.52-1.18-.62-2.36-1.23-3.54-1.85-.32-.17-.52.33-.22.51,1.52.91,3.13,1.62,4.82,2.14.34.11.54-.35.22-.52-1.19-.63-2.38-1.27-3.58-1.9-.32-.17-.53.35-.21.52,1.49.79,3.07,1.41,4.7,1.85.35.09.54-.38.2-.53-1.13-.5-2.26-.99-3.38-1.49l-.2.53c1.1.42,2.21.84,3.31,1.26l.19-.53c-2.39-.9-4.78-1.79-7.17-2.69-.3-.11-.52.36-.24.52,1.56.83,3.12,1.65,4.68,2.47.3.16.57-.35.28-.52-3.45-2.08-6.79-4.33-10-6.77l-.3.49c.99.56,1.97,1.11,2.96,1.67.33.18.6-.28.3-.49-1.01-.71-2.03-1.43-3.04-2.14-.27-.19-.6.23-.35.45.98.89,2.15,1.54,3.43,1.9.32.09.49-.32.24-.51-1.44-1.15-3.01-2.12-4.68-2.9-.27-.13-.53.15-.34.41,1,1.38,2.36,2.46,3.92,3.14l.17-.51c-.34-.13-.67-.26-1.01-.38-.27-.1-.51.33-.24.47,1.09.56,2.18,1.13,3.28,1.69l.24-.47c-.95-.45-1.89-.91-2.84-1.36-.27-.13-.5.32-.24.47,2.62,1.49,5.3,2.87,8.04,4.14.27.12.51-.33.24-.47-1.79-.94-3.58-1.89-5.36-2.83-.26-.14-.5.29-.25.46,1.2.81,2.51,1.44,3.89,1.84.32.09.51-.33.2-.48-.93-.47-1.92-.81-2.95-1.01-.24-.05-.43.32-.21.46,1.47.97,3.03,1.79,4.66,2.46.31.13.53-.32.22-.47-1.06-.51-2.12-1.02-3.18-1.53l-.23.46c1.94.92,3.96,1.66,6.04,2.18.32.08.45-.39.13-.49-1.39-.44-2.78-.88-4.17-1.32-.3-.1-.48.34-.18.46,1.23.51,2.46,1.02,3.68,1.53.29.12.5-.3.21-.44-1.09-.51-2.18-1-3.26-1.51l-.14.45c1.07.34,2.14.69,3.21,1.03l.18-.42c-1.25-.36-2.5-.71-3.75-1.06l-.08.37c1.33.29,2.67.59,4,.89.18.04.28-.24.09-.28-1.4-.33-2.81-.54-4.25-.62-.14,0-.18.2-.04.21h0Z"/><path class="cls-1" d="M85.46,93.17c1.61.29,3.33.1,4.94-.09s3.21-.51,4.79-.85c3.03-.66,6.06-1.36,9.07-2.13,5.72-1.45,11.41-3.33,16.46-6.44,2.62-1.61,5.05-3.55,7.09-5.85.26-.29-.15-.74-.41-.45-3.62,4.06-8.32,6.95-13.32,9-5.68,2.34-11.72,3.7-17.69,5.09-1.79.42-3.58.8-5.4,1.07-.92.14-1.84.25-2.77.31s-1.86.08-2.78.16c-.1,0-.07.15.01.16h0Z"/><path class="cls-1" d="M111.36,68.89c.31.29.73.5,1.08.75.4.28.79.59,1.17.91.68.57,1.38,1.14,2.02,1.75s1.19,1.23,1.55,2.01c.17.36.29.75.35,1.14.03.21.04.43.03.64-.02.29-.1.52.05.78.07.13.26.13.37.05.35-.23.31-.81.29-1.18-.02-.44-.12-.88-.27-1.3-.34-.91-.94-1.68-1.63-2.36s-1.4-1.25-2.14-1.82c-.44-.35-.9-.68-1.38-.98-.39-.24-.89-.55-1.36-.61-.11-.01-.19.14-.11.22h0Z"/><path class="cls-1" d="M115.48,80.54c.06-.03.1-.02.16-.03.08-.02.15-.09.21-.13.12-.09.25-.18.37-.27.26-.19.5-.41.74-.64.43-.43.85-.89,1.16-1.41.08-.13.01-.3-.11-.37-.06-.03-.14-.04-.21-.02-.08.02-.11.08-.16.13-.09.09-.16.21-.24.31-.1.13-.2.26-.3.39-.16.2-.31.4-.48.59-.2.23-.41.44-.62.67-.11.12-.22.23-.33.34-.06.05-.12.1-.17.16s-.05.13-.1.19c-.04.05.02.12.08.09h0Z"/><path class="cls-1" d="M121.44,77.92c.43-.46.74-1.1,1-1.66.32-.69.55-1.43.64-2.2.07-.62.03-1.25-.11-1.86-.14-.57-.41-1.46-.96-1.76-.19-.1-.46.11-.41.32.07.26.25.45.38.68s.23.47.31.72c.16.49.22,1.02.21,1.54-.01.67-.15,1.33-.36,1.96-.1.33-.23.64-.36.96-.17.4-.39.79-.51,1.21-.03.1.11.17.18.1h0Z"/><path class="cls-1" d="M115.48,67.56c.13.16.35.26.53.36.23.14.45.28.68.43.35.23.69.47,1.01.73.3.25.6.51.88.78.14.14.28.28.42.43.07.07.14.15.21.22.1.11.19.16.33.24.2.12.48-.1.39-.32s-.2-.37-.37-.54-.32-.31-.49-.46c-.35-.32-.72-.61-1.11-.87-.36-.24-.74-.47-1.13-.66-.24-.12-.49-.22-.74-.32-.18-.07-.37-.15-.56-.13-.05,0-.06.07-.04.1h0Z"/><path class="cls-1" d="M108.61,70.89c1.79,1.06,3.58,2.58,4.31,4.59.32.9.43,1.88.29,2.83-.07.45-.2.9-.38,1.32-.2.45-.49.83-.77,1.23-.2.29.19.66.46.42.61-.53.99-1.37,1.2-2.13s.26-1.61.16-2.4c-.22-1.73-1.15-3.3-2.45-4.44-.82-.72-1.71-1.19-2.73-1.57-.09-.04-.19.1-.09.16h0Z"/><path class="cls-1" d="M95.3,91.24c.53-.11,1.06-.16,1.58-.31s1.04-.32,1.55-.52c.95-.36,1.88-.8,2.77-1.29,1.79-.99,3.44-2.22,4.9-3.65s2.77-3.05,3.71-4.85,1.55-4.16.36-6.03c-1.36-2.15-4.17-2.74-6.54-2.85-.45-.02-.52.64-.07.7,2.05.25,4.34.46,5.75,2.17s.79,3.98-.11,5.73-2.07,3.18-3.38,4.51-2.76,2.47-4.34,3.44c-.99.61-2.03,1.14-3.1,1.58-.49.21-1,.4-1.5.57-.26.09-.53.16-.79.26-.29.11-.56.23-.86.31-.12.03-.07.23.05.21h0Z"/><path class="cls-1" d="M102.63,75.42c.29.41.78.66,1.2.92.44.28.88.56,1.32.83.67.4,1.5.92,1.46,1.81s-.79,1.67-1.3,2.35c-.6.78-1.22,1.54-1.79,2.34-.25.35.27.72.54.39.69-.86,1.35-1.76,2.02-2.64.59-.77,1.27-1.67,1.15-2.7-.1-.89-.84-1.49-1.57-1.91-.5-.29-1.01-.54-1.52-.8-.47-.24-.96-.56-1.5-.61-.01,0-.02.01-.01.02h0Z"/><path class="cls-1" d="M100.47,86.18c.26-.2.49-.46.69-.71s.4-.49.57-.76c.36-.57.69-1.18.88-1.83.1-.33-.39-.48-.51-.16-.21.57-.44,1.14-.72,1.68-.16.29-.32.59-.5.87s-.38.53-.54.8c-.04.08.06.17.13.11h0Z"/><path class="cls-1" d="M102.85,81.87c.79-1.14.78-2.68.1-3.88-.32-.56-.81-1.03-1.35-1.37-.49-.31-1.2-.62-1.79-.56-.29.03-.39.51-.09.6.27.08.56.1.83.19.22.07.44.17.65.29.48.27.88.65,1.18,1.11.68,1.02.71,2.38.26,3.51-.06.15.12.24.21.11h0Z"/><path class="cls-1" d="M95.45,77.42c.79.55,1.71.88,2.49,1.47.63.48,1.18,1.11,1.45,1.87.57,1.64-.59,3.2-1.59,4.38-1.97,2.32-4.4,4.26-7.12,5.63-1.53.78-3.15,1.38-4.82,1.79-.41.1-.32.76.1.66,3.21-.79,6.25-2.26,8.85-4.3,1.27-.99,2.44-2.11,3.47-3.35,1.09-1.31,2.26-2.95,1.75-4.75-.23-.82-.76-1.53-1.41-2.07-.84-.71-1.99-1.29-3.07-1.51-.09-.02-.18.12-.09.18h0Z"/><path class="cls-1" d="M91.89,88.1c.53-.07,1.06-.42,1.5-.71.47-.31.9-.66,1.29-1.06.71-.74,1.26-1.64,1.51-2.64.49-1.92-.35-4.25-2.36-4.89-.36-.12-.6.47-.25.63.79.35,1.42.87,1.78,1.68s.39,1.7.17,2.55c-.26.98-.83,1.85-1.55,2.55-.33.32-.69.61-1.06.88s-.82.49-1.13.82c-.08.08,0,.22.11.2h0Z"/><path class="cls-1" d="M87.56,88.29c1.41-1.09,2.87-2.14,4.17-3.36.51-.48.91-1.06.93-1.78s-.3-1.43-.88-1.82c-.19-.13-.44.04-.49.23-.04.13-.07.25-.09.38-.06.29.37.4.51.18.08-.11.15-.22.22-.33l-.53.1c.44.39.71.95.58,1.55-.13.64-.7,1.11-1.17,1.52-1.16,1.03-2.28,2.11-3.38,3.2-.08.07.05.2.13.13h0Z"/><path class="cls-1" d="M81.34,91.38c1.42-.02,2.87-.34,4.24-.69.65-.17,1.3-.35,1.93-.56.32-.11.64-.21.95-.33s.69-.21.97-.43c.23-.18.05-.52-.22-.5-.32.03-.62.19-.91.31-.34.13-.69.26-1.04.37-.57.19-1.14.37-1.72.54-1.4.4-2.83.64-4.24.99-.17.04-.14.3.04.3h0Z"/><path class="cls-1" d="M84.9,92.83c-1.01.13-2,.36-3,.54s-2.07.36-3.11.52c-2.04.33-4.09.59-6.14.82-4.05.46-8.13.7-12.21.76-2.3.03-4.6-.07-6.9-.08-.33,0-.32.49,0,.51,2.04.15,4.11.12,6.16.1s4.03-.09,6.04-.21c4.11-.24,8.2-.7,12.26-1.37,1.15-.19,2.29-.39,3.43-.62s2.37-.43,3.51-.79c.12-.04.09-.21-.04-.19h0Z"/><path class="cls-1" d="M29.37,90.12c1.01.19,2.02.41,3.03.6.93.18,1.87.32,2.81.47,1.81.29,3.63.57,5.45.83,3.64.53,7.29.98,10.95,1.33,7.26.68,14.56.86,21.84.52,4.07-.19,8.17-.49,12.21-1.07.38-.06.38-.66-.02-.61-3.64.41-7.28.79-10.94.99s-7.24.27-10.87.21c-7.27-.12-14.49-.82-21.69-1.78-2.1-.28-4.19-.58-6.29-.89-1.06-.16-2.11-.32-3.17-.46s-2.19-.26-3.28-.39c-.16-.02-.2.21-.05.24h0Z"/><path class="cls-1" d="M43.26,89.72c-.09-.18-.25-.21-.44-.26-.29-.07-.59-.13-.88-.2-.55-.12-1.09-.25-1.63-.4-1.04-.29-2.06-.66-3.01-1.19-1.54-.87-2.94-2.3-3.35-4.07-.23-1-.12-2.1.7-2.79.3-.25-.1-.69-.41-.45-1.58,1.26-.94,3.78.02,5.2,1.18,1.75,3.04,2.83,5.02,3.48.65.21,1.32.38,1.99.53.35.08.71.15,1.07.21.27.05.66.2.89,0,.02-.02.03-.04.02-.07h0Z"/><path class="cls-1" d="M44.41,90.5c.29.14.65.17.96.24.38.09.77.16,1.15.23.73.14,1.46.28,2.19.42.68.13,1.36.27,2.05.4.37.07.73.15,1.1.22s.75.19,1.14.2v-.55s-.09.01-.13.02c-.23.03-.32.35-.09.46l.08.04c.32.15.59-.34.26-.48s-.69-.18-1.04-.25-.71-.14-1.06-.2c-.72-.13-1.44-.26-2.16-.38s-1.44-.23-2.16-.34c-.37-.05-.73-.1-1.1-.14s-.79-.13-1.17-.08c-.09.01-.11.13-.03.17h0Z"/><path class="cls-1" d="M41.32,91.55c-1.24-.87-2.75-1.38-4.15-1.94-1.28-.51-2.57-1.05-3.74-1.78-2.14-1.35-4.17-3.85-3.44-6.54.34-1.25,1.24-2.34,2.51-2.69.38-.11.2-.69-.18-.59-1.26.35-2.22,1.37-2.7,2.57s-.4,2.49.04,3.66c1.06,2.79,3.81,4.37,6.44,5.42.81.32,1.64.63,2.45.94.9.35,1.78.74,2.67,1.12.11.04.17-.11.08-.18h0Z"/><path class="cls-1" d="M28.96,86.9c-.04-.18-.15-.29-.27-.42-.16-.17-.32-.35-.46-.55-.31-.43-.56-.9-.75-1.4-.37-.99-.46-2.06-.22-3.09.21-.92.7-1.78,1.35-2.46.7-.73,1.54-1.14,2.49-1.46l-.35-.16c.09.13.17.27.26.4.19.28.66-.01.5-.31-.07-.13-.13-.26-.2-.39s-.22-.19-.35-.16c-1.58.36-2.99,1.59-3.73,3.01-.81,1.56-.81,3.38-.11,4.97.2.45.47.87.77,1.24.23.28.62.82,1.02.82.03,0,.06-.02.05-.05h0Z"/><path class="cls-1" d="M31.32,88.93c.04.05.08.09.15.12.08.03.15.06.23.1.14.06.29.11.44.17.14.05.27.1.41.15.16.06.4.14.53-.02.08-.1.07-.24-.01-.33-.04-.05-.14-.08-.2-.11-.03-.01-.06-.03-.1-.03-.13-.04-.26-.07-.39-.1s-.26-.07-.39-.1c-.09-.02-.19-.04-.28-.06-.03,0-.06-.01-.09-.02-.07-.02-.12,0-.19,0-.11.03-.16.15-.09.24h0Z"/><path class="cls-1" d="M25.48,87.37c-.6-.79-1.15-1.58-1.49-2.53s-.48-1.88-.42-2.85c.11-1.87,1.06-3.6,2.51-4.76.83-.66,1.74-1.06,2.76-1.34.29-.08.42-.52.07-.64-.13-.04-.26-.08-.38-.11-.25-.08-.46.32-.24.47.1.07.2.15.31.22l.15-.6c-1.95.37-3.73,1.76-4.73,3.45-1.05,1.78-1.26,3.92-.63,5.89.36,1.11,1.01,2.24,1.96,2.94.08.06.2-.06.14-.14h0Z"/><path class="cls-1" d="M22.14,86.08c-.33-.3-.63-.63-.96-.94-.37-.34-.72-.7-1.04-1.09-.56-.69-1.01-1.5-1.12-2.39-.26-2.05,1.09-3.85,2.61-5.06.88-.7,1.88-1.18,2.81-1.82.29-.2.03-.7-.3-.54-.52.25-1,.58-1.48.89-.45.29-.89.6-1.31.93-.85.66-1.59,1.45-2.12,2.39s-.8,1.93-.73,2.96c.06.93.45,1.79,1,2.53.33.44.71.84,1.12,1.21.19.17.39.34.6.5.27.21.56.35.84.53.07.05.13-.05.07-.1h0Z"/><path class="cls-1" d="M26.45,74.29s.03-.03.05-.03c.02,0,.04-.01.06-.02.06-.04.14-.08.19-.13.08-.08.16-.16.25-.24.08-.07.15-.15.22-.23.08-.09.16-.18.25-.26.1-.08.12-.25.03-.35-.08-.09-.26-.13-.35-.03-.1.11-.2.22-.28.34-.06.08-.05.19.01.26.07.07.17.07.26.02.12-.07.23-.15.34-.24l-.37-.33c-.12.19-.27.37-.39.57-.05.08-.1.16-.15.24-.03.05-.08.1-.1.15l-.02.07-.02.05s0,.06,0,.1v-.04s-.02.04-.03.06c-.02.03.03.08.06.05h0Z"/><path class="cls-1" d="M19.7,87.81c-.56-.45-1.16-.8-1.66-1.33-.46-.48-.84-1.03-1.15-1.62-.66-1.27-.92-2.71-.76-4.12.34-3.12,2.4-5.78,4.97-7.46.73-.48,1.5-.89,2.3-1.25.4-.18.81-.35,1.22-.5s.81-.26,1.18-.46c.25-.13.15-.61-.15-.57-.86.11-1.75.55-2.53.91-.74.34-1.46.73-2.14,1.17-1.39.9-2.64,2.03-3.59,3.4-1.78,2.58-2.42,5.94-1.02,8.83.34.71.78,1.36,1.34,1.92.51.52,1.18,1.07,1.9,1.24.09.02.18-.11.1-.18h0Z"/><path class="cls-1" d="M13.76,84.12c-.24-1.2-.45-2.36-.36-3.59s.42-2.41,1.01-3.48c.5-.9,1.14-1.71,1.91-2.4.38-.34.8-.65,1.24-.92.48-.29,1.01-.47,1.49-.75.26-.15.08-.63-.21-.56-.45.1-.88.35-1.28.57s-.76.47-1.11.74c-.67.53-1.28,1.14-1.79,1.83-1.14,1.54-1.75,3.42-1.77,5.33-.01,1.11.16,2.31.69,3.29.05.09.2.06.18-.06h0Z"/><path class="cls-1" d="M10.86,83.62c.09-.21.19-.35.22-.58.03-.21.03-.42.01-.63-.04-.53-.17-1.05-.28-1.58-.2-.98-.25-1.93,0-2.91.5-1.89,1.88-3.39,3.44-4.51.89-.63,1.84-1.15,2.78-1.68.37-.21.02-.74-.35-.55-1.71.91-3.41,1.98-4.7,3.44s-2.07,3.27-1.85,5.16c.08.66.3,1.28.46,1.92.07.27.13.55.16.83.02.16.03.32.03.48,0,.19.05.4.03.59,0,.02.02.02.03,0h0Z"/><path class="cls-1" d="M19.8,69.91c.19.15.77-.36.93-.46.28-.17.57-.34.86-.49.53-.29,1.08-.51,1.63-.75.16-.07.22-.27.15-.42-.08-.17-.26-.21-.42-.15-.55.2-1.08.48-1.58.8-.31.19-.61.4-.89.64-.24.2-.5.39-.69.63-.04.05-.06.14-.01.19,0,0,.01.01.02.02h0Z"/><path class="cls-1" d="M8,79.49c-.84-1.09-.89-2.56-.38-3.8s1.53-2.29,2.54-3.21c2.02-1.87,4.34-3.42,6.84-4.56,1.4-.64,2.86-1.16,4.35-1.55l-.41-.37c-.01.34,0,.67.03,1.01.02.36.52.4.57.03.04-.33.09-.65.1-.98,0-.21-.18-.44-.41-.37-2.87.78-5.6,2-8.07,3.66-1.2.8-2.33,1.71-3.39,2.7s-2.12,2.12-2.65,3.52-.44,3.07.66,4.12c.12.11.3-.06.21-.19h0Z"/><path class="cls-1" d="M4.6,77.76c-.31-.67-.38-1.53-.33-2.26.05-.66.22-1.31.49-1.92.56-1.28,1.51-2.33,2.59-3.2s2.29-1.65,3.47-2.42,2.42-1.56,3.7-2.22c1.44-.75,2.93-1.27,4.5-1.63.45-.1.3-.77-.15-.69-3,.51-5.72,2.2-8.21,3.86s-5.17,3.24-6.34,5.99c-.31.73-.5,1.52-.51,2.32,0,.39.02.8.12,1.18s.3.74.49,1.08c.06.11.23.02.18-.09h0Z"/><path class="cls-1" d="M64.98,90.27c7.51-.39,16.08.49,22.11-4.86,4.08-3.21,6.98-7.55,9.54-12,3.85-6.66,7.05-13.78,9.01-21.23,2.42-9.97,3.54-13.67-6.74-18.66-16.36-8.33-50.69-8.31-67.89-2.05-3.68,1.04-7.03,3.12-9.62,5.87-1.79,1.93-1.6,4.68-1.65,7.15-.32,11.84,5.76,22.29,11.95,31.94,8.85,13.8,18,14.94,33.3,13.86h0ZM64.98,90.27c-15.42,1.13-24.39.02-33.45-13.76-5.56-8.6-11.24-17.71-12.14-28.16-.23-2.59-.29-5.17-.04-7.77.11-1.32.7-2.64,1.57-3.64,2.68-2.9,6.1-5.06,9.86-6.14,0,0,3.7-1.13,3.7-1.13,3.69-1.2,7.53-1.98,11.38-2.41,10.25-1.22,20.65-1.4,30.92-.22,8.94,1,18.12,2.83,25.77,7.85,7.56,4.34,5.16,10.4,3.48,17.39-2.05,7.47-5.32,14.56-9.25,21.22-2.61,4.43-5.54,8.79-9.63,11.98-6.06,5.34-14.64,4.44-22.16,4.79h0Z"/><path class="cls-1" d="M21.95,40.63c.12-1.9,2.05-2.94,3.46-3.91,3.01-2.03,6.46-3.27,9.94-4.21,8.67-2.79,17.78-3.19,26.82-3.25,7.24-.09,14.49.25,21.66,1.35,3.6.53,7.1,1.59,10.55,2.65,3.26,1.25,7.9,1.57,9.55,5.13,2.57,7.82-11.83,10.2-17.37,11.51-14.85,2.81-30.19,2.88-45.07.27-5.62-.64-11.11-2.46-15.92-5.48-1.46-1.02-3.49-2.1-3.61-4.07h0ZM21.95,40.63c.13,1.97,2.18,3.04,3.63,4.05,4.82,2.99,10.29,4.78,15.92,5.39,7.45,1.15,14.96,1.86,22.5,1.57,11.21-.37,22.66-1.53,33.21-5.47,3.47-1.39,7.29-3.7,5.96-7.48-.57-1.56-2.26-2.4-3.89-3.02-1.66-.63-3.41-1.13-5.13-1.68-3.45-1.08-6.88-2.14-10.44-2.68-7.1-1.19-14.34-1.63-21.54-1.64-9.02-.06-18.12.17-26.79,2.94-3.49.93-6.93,2.14-9.95,4.15-1.42.96-3.33,1.98-3.47,3.88h0Z"/><path class="cls-1" d="M20.83,44.16c5.48,5.28,13.01,6.97,20.24,8.38,14.55,2.97,29.61,2.7,44.23.34,3.65-.6,7.32-1.26,10.81-2.5,3.45-1.29,6.56-3.48,9.21-6.06-2.57,2.67-5.61,4.97-9.08,6.41-3.51,1.32-7.18,2.05-10.84,2.72-14.65,2.58-29.86,2.85-44.44-.34-7.24-1.52-14.82-3.45-20.12-8.94h0Z"/><path class="cls-1" d="M24.36,41.76c5.45-3.84,12.05-5.42,18.53-6.54,16.2-2.74,33.24-2.96,49.06,1.88,3.13,1.07,6.15,2.42,9.03,4.02-5.88-3-12.25-4.87-18.75-5.76-9.74-1.53-19.66-1.7-29.46-.78-9.69,1.1-19.94,1.92-28.4,7.18h0Z"/><path class="cls-1" d="M104.9,57.69c2.63-2.48,4.95-6.25,8.97-6.26,4.1-.26,7.62,4.11,5.72,7.99-.8,1.87-2.83,2.56-4.42,3.52-4.72,2.93-10.06,4.73-15.19,6.84,4.95-2.52,10.13-4.45,14.84-7.43,1.48-.95,3.36-1.54,4.09-3.25,1.72-3.45-1.4-7.19-5.03-7.09-3.84-.11-6.21,3.52-8.97,5.68h0Z"/><path class="cls-1" d="M106.74,51.77c2.33-2.5,5.81-4.95,9.37-3.52,4.15,1.34,8.15,5.91,6.59,10.47-1.53,4.48-6.06,6.38-9.85,8.52-1.11.61-2.36,1.22-3.51,1.76-.3.13-.82.38-1.12.5-.03,0-.05.03.02-.01.08-.05.14-.2.12-.28,0,0-.21.32-.21.32-3.62,1.63-7.24,3.24-10.9,4.76,3.51-1.86,7.06-3.65,10.61-5.41,0,0-.21.32-.21.32.03-.34.42-.4.79-.6.36-.17,1.35-.7,1.72-.89,2.22-1.18,4.63-2.53,6.75-3.86,2.76-1.61,5.43-4.49,5.21-7.81-.48-3.31-3.16-6-6.22-7.19-3.33-1.47-6.68.75-9.15,2.92h0Z"/><path class="cls-1" d="M103.48,51.29c.05,0,.05-.08,0-.08s-.05.08,0,.08h0Z"/><path class="cls-1" d="M103.36,50.38c.09.17.35.17.51.17.3,0,.61-.03.9-.12.67-.21,1.43-.67,1.72-1.34.06-.15-.05-.34-.19-.39-.16-.06-.32-.01-.41.13-.15.22-.29.45-.48.65-.2.22-.45.39-.72.51-.23.11-.48.2-.73.24-.09.02-.19.03-.29.04-.12.01-.23,0-.32.1,0,0,0,0,0,0h0Z"/><path class="cls-1" d="M102.48,54.72c.49.14,1.08,0,1.56-.14.31-.1.62-.22.91-.37.23-.13.52-.28.67-.51.07-.12.06-.28-.02-.39-.04-.05-.08-.09-.14-.11-.04-.02-.2-.07-.23-.02,0-.02-.21.12-.27.17s-.11.1-.16.15c-.09.08-.19.16-.29.23-.23.17-.45.31-.71.42-.18.08-.37.14-.56.19-.24.07-.5.1-.74.18-.09.03-.11.17,0,.2h0Z"/><path class="cls-1" d="M101.59,59.23c.71.4,1.65.11,2.21-.43.16-.15.37-.4.34-.63-.03-.2-.26-.31-.44-.23-.12.06-.19.19-.27.29.04-.05-.02.02-.03.03-.02.02-.04.05-.06.07-.04.04-.08.09-.13.13-.09.08-.2.16-.31.22-.38.21-.79.26-1.21.25-.16,0-.24.22-.09.3h0Z"/><path class="cls-1" d="M98.85,63.54c.22.11.54.07.77.04.43-.04.85-.15,1.25-.31.6-.24,1.21-.68,1.56-1.23.19-.3-.21-.62-.47-.39-.23.19-.43.41-.66.6s-.49.37-.76.53c-.25.15-.52.27-.8.37-.14.05-.28.09-.43.13-.16.04-.33.06-.47.14-.05.03-.02.11.02.13h0Z"/><path class="cls-1" d="M97.41,67.1c1.31.11,2.7-.18,3.82-.89.35-.22.03-.72-.32-.54-.26.13-.54.24-.81.36s-.54.26-.83.36c-.61.23-1.23.39-1.86.53-.1.02-.11.18,0,.19h0Z"/><path class="cls-1" d="M96.03,70.45c.13.04.25.08.38.1.11.01.21.02.32.02s.21-.01.31-.03c.17-.03.33-.08.49-.14.14-.05.27-.12.39-.2.06-.04.12-.08.18-.12.03-.02.05-.04.08-.06.11-.09.14-.19.14-.32,0-.18-.19-.29-.35-.29-.17,0-.36.2-.5.28-.1.06-.2.11-.3.16-.12.06-.25.1-.37.14-.23.07-.49.15-.73.17-.15.02-.18.26-.03.3h0Z"/><path class="cls-1" d="M93.4,73.6c.65.1,1.35-.03,1.97-.23.32-.1.64-.21.95-.35s.64-.28.78-.61c.06-.14-.06-.32-.21-.33-.31-.02-.57.14-.83.29-.28.16-.56.3-.85.42-.59.25-1.22.42-1.81.68-.05.02-.07.12,0,.13h0Z"/><path class="cls-1" d="M90.62,77.63c.3.09.68-.04.98-.1.35-.07.7-.14,1.05-.21.32-.07.64-.15.97-.22s.65-.15.96-.3c.27-.13.09-.57-.18-.54-.67.07-1.33.31-1.97.5-.3.09-.59.18-.89.28s-.72.17-.96.41c-.06.06-.03.15.05.18h0Z"/><path class="cls-1" d="M88.02,81.32c.12.11.26.13.42.17.18.05.37.07.56.08s.39.03.59.04.38.02.57.02c.14,0,.32-.01.42-.12s.12-.28.04-.41c-.12-.19-.39-.18-.59-.17-.18,0-.36,0-.54.01-.21.01-.42.02-.64.04-.17.01-.35.05-.52.09-.12.03-.22.06-.31.14-.03.03-.04.08,0,.11h0Z"/><path class="cls-1" d="M85.14,84.61c.13.15.39.19.57.25.12.04.25.07.37.1.24.06.48.14.72.16.17.02.31-.13.31-.3,0-.08-.03-.15-.09-.2-.03-.03-.06-.05-.09-.06-.05-.02-.1-.02-.15-.01.06-.01.07-.02.04-.02,0,0-.02,0-.03,0-.02,0-.05,0-.07-.01-.09-.02-.18-.03-.28-.05-.1-.02-.19-.04-.29-.05-.15-.03-.3-.05-.46-.07s-.35-.06-.5.01c-.09.04-.12.17-.05.25h0Z"/><path class="cls-1" d="M81.51,56.51c4.22.83,8.7.37,12.79-.92,1.24-.39,2.57-.82,3.68-1.5.36-.22.08-.83-.33-.68-1.03.39-2.02.87-3.06,1.24-.98.35-1.97.64-2.98.88-2.1.5-4.25.81-6.41.83-1.23.01-2.45,0-3.68-.07-.12,0-.14.19-.02.21h0Z"/><path class="cls-1" d="M68.32,60.22c1.69.42,3.41.49,5.14.53s3.51.03,5.27-.05c3.54-.17,7.07-.55,10.56-1.21,1.98-.37,3.95-.8,5.88-1.37.41-.12.21-.84-.21-.74-1.75.44-3.49.9-5.25,1.27s-3.41.64-5.13.88c-3.48.48-6.98.69-10.5.68-1.92,0-3.83-.16-5.75-.04-.03,0-.03.04,0,.05h0Z"/><path class="cls-1" d="M64.29,63.43c.31.05.62.12.93.15.35.04.7.05,1.05.06.67.03,1.35.05,2.02.05.4,0,.42-.62.02-.62-.66,0-1.32.02-1.98.05-.33.01-.66.02-.99.05-.35.03-.7.11-1.05.17-.05,0-.06.09,0,.1h0Z"/><path class="cls-1" d="M73.88,63.16c1.2.02,2.39.06,3.58.03,1.12-.03,2.23-.1,3.35-.17,2.4-.16,4.8-.44,7.18-.79,1.32-.19,2.64-.4,3.96-.64.5-.09.29-.86-.21-.76-4.55.85-9.14,1.41-13.75,1.84-1.37.13-2.74.28-4.11.38-.06,0-.06.11,0,.11h0Z"/><path class="cls-1" d="M67.06,66.22c.83.26,1.71.32,2.57.39s1.69.13,2.54.18c1.7.1,3.4.15,5.1.15,3.27.01,6.54-.14,9.79-.43,1.84-.16,3.72-.31,5.53-.65.48-.09.42-.82-.08-.76-1.62.19-3.22.44-4.84.6s-3.36.3-5.05.4c-3.3.18-6.59.2-9.89.11-.95-.02-1.9-.07-2.85-.12s-1.89-.16-2.82-.04c-.1.01-.11.14-.01.17h0Z"/><path class="cls-1" d="M65.36,69.3c.78.34,1.67.45,2.51.47s1.69-.06,2.52-.25c.45-.1.31-.72-.14-.62-.89.21-1.82.33-2.74.33-.71,0-1.41-.06-2.12-.08-.08,0-.12.1-.04.14h0Z"/><path class="cls-1" d="M74.44,69.35c.49.27,1.18.27,1.73.34.66.08,1.33.14,1.99.19,1.11.08,2.24.07,3.35.06,2.21-.03,4.42-.25,6.6-.62.6-.1,1.19-.21,1.79-.34s1.25-.24,1.84-.44c.42-.15.27-.85-.19-.78-.55.09-1.1.25-1.65.37s-1.08.23-1.62.32c-1.04.19-2.08.34-3.13.46-2.31.28-4.62.33-6.94.32-.6,0-1.19-.02-1.79-.04-.36-.01-.73-.05-1.09-.06-.29-.01-.59-.04-.87.03-.08.02-.11.14-.03.18h0Z"/><path class="cls-1" d="M68.6,71.89c.25.12.53.16.8.22.38.09.78.15,1.17.2.72.1,1.44.17,2.16.23,1.35.11,2.7.16,4.05.18,2.67.03,5.35-.1,8.01-.39.74-.08,1.48-.17,2.22-.27.78-.11,1.62-.17,2.38-.43.4-.13.26-.71-.14-.7-.64.01-1.28.17-1.91.27-.74.11-1.48.22-2.23.31-1.26.15-2.53.26-3.79.35-2.65.18-5.3.16-7.95.08-.83-.03-1.67-.09-2.5-.12-.4-.02-.81-.04-1.21-.05-.34,0-.7-.04-1.03.03-.05,0-.06.07-.01.1h0Z"/><path class="cls-1" d="M63.55,75.2c3.12,1.2,6.68,1.36,9.94.65.45-.1.26-.76-.18-.68-3.24.58-6.49.48-9.73-.06-.05,0-.08.07-.03.09h0Z"/><path class="cls-1" d="M74.49,76.17c1.1.14,2.25,0,3.36-.04s2.25-.08,3.37-.15,2.19-.14,3.29-.22c.51-.04,1.01-.08,1.52-.11s1.1,0,1.57-.19c.33-.14.31-.61-.05-.69-.48-.12-1.09.03-1.58.07-.52.05-1.04.09-1.57.14-1.14.1-2.29.19-3.43.3-1.05.1-2.09.21-3.14.31-1.1.11-2.27.12-3.34.4-.11.03-.1.18.01.19h0Z"/><path class="cls-1" d="M61.85,79.34c1.28.43,2.65.59,3.99.77s2.72.31,4.09.4c2.71.17,5.43.16,8.13-.03.74-.05,1.47-.12,2.21-.2.78-.08,1.57-.15,2.33-.35.36-.1.29-.67-.09-.66-1.33.05-2.66.3-3.99.41s-2.76.19-4.15.22c-2.64.05-5.27-.06-7.9-.32-1.53-.16-3.06-.45-4.59-.53-.17,0-.19.24-.04.29h0Z"/><path class="cls-1" d="M58.56,82.98c1.57.43,3.25.53,4.87.65,1.52.11,3.03.17,4.55.19,3,.03,5.99-.09,8.97-.37,1.7-.16,3.42-.35,5.1-.66.47-.08.43-.83-.06-.76-3.03.44-6.05.82-9.11.98s-6.06.17-9.08.02c-1.73-.08-3.48-.3-5.22-.25-.11,0-.14.17-.03.2h0Z"/><path class="cls-1" d="M60.41,85.92c.4.15.78.31,1.19.43.29.08.58.15.87.21.64.13,1.28.24,1.92.33,1.23.17,2.46.28,3.69.34,2.41.12,4.84,0,7.24-.33.66-.09,1.32-.2,1.97-.32s1.32-.22,1.93-.48c.33-.14.3-.69-.11-.66-.58.04-1.13.2-1.7.31s-1.18.22-1.77.32c-1.17.18-2.34.31-3.52.39-2.58.17-5.19.1-7.76-.21-.65-.08-1.29-.17-1.94-.27s-1.31-.14-1.97-.2c-.07,0-.12.1-.04.13h0Z"/><path class="cls-1" d="M49.48,88.62c1.91.49,3.88.72,5.84.9s3.87.3,5.81.37c3.93.15,7.86.05,11.78-.25,1.08-.08,2.15-.18,3.23-.3,1.13-.13,2.3-.22,3.41-.47.5-.11.36-.8-.13-.77-.97.06-1.94.25-2.9.37s-1.83.21-2.75.3c-1.94.19-3.89.32-5.84.39-3.9.16-7.8.08-11.69-.21-2.25-.16-4.48-.44-6.73-.54-.12,0-.14.16-.02.19h0Z"/><path class="cls-1" d="M66.32,57.41c.93.47,2.05.61,3.07.78s2.03.25,3.05.28c2.02.06,4.12-.03,6.08-.55.35-.09.21-.67-.14-.62-2,.26-3.97.51-5.99.46-1.05-.03-2.11-.1-3.15-.23-.94-.11-1.88-.36-2.83-.39-.13,0-.22.19-.09.26h0Z"/><path class="cls-1" d="M51.12,56.91c-7.13-1.27-14.21-2.74-21.16-4.78-1.97-.58-3.94-1.2-5.89-1.84-.49-.16-.67.61-.19.78,6.85,2.34,13.91,4.12,21.03,5.39,2.04.36,4.09.67,6.14.88.28.03.34-.38.06-.43h0Z"/><path class="cls-1" d="M51.85,60.13c-.54-.11-1.09-.13-1.62-.23-.5-.09-1-.21-1.5-.31-.28-.06-.51.34-.21.49.51.26,1.04.41,1.61.46s1.17.1,1.71-.09c.14-.05.19-.28.01-.32h0Z"/><path class="cls-1" d="M45.49,59.76c-.57-.16-1.13-.32-1.72-.45-.73-.16-1.46-.33-2.2-.49-1.39-.3-2.78-.62-4.16-.94-2.59-.61-5.16-1.3-7.72-2.05-1.48-.43-2.95-.94-4.44-1.33-.45-.12-.6.51-.19.68,1.24.51,2.55.86,3.83,1.24s2.61.74,3.92,1.09c2.55.67,5.12,1.26,7.71,1.73.76.14,1.52.28,2.28.39.42.06.84.12,1.26.18.47.06.93.07,1.4.1.08,0,.08-.12,0-.14h0Z"/><path class="cls-1" d="M50.62,63.61c-.45-.16-.94-.19-1.41-.25-.52-.06-1.03-.13-1.55-.18-.86-.09-1.72-.2-2.59-.3-1.68-.2-3.35-.45-5.02-.75-3.27-.58-6.51-1.37-9.69-2.32-.87-.26-1.73-.53-2.59-.82-.9-.3-1.8-.65-2.7-.94-.48-.16-.82.54-.33.74,1.62.67,3.31,1.2,4.99,1.71,1.57.48,3.15.92,4.75,1.3,3.36.8,6.77,1.39,10.2,1.79.97.11,1.95.2,2.92.25.53.03,1.05.04,1.58.04.46,0,.95.03,1.4-.08.08-.02.12-.15.02-.18h0Z"/><path class="cls-1" d="M53.41,66.86c-.46-.1-.94-.05-1.41-.07-.54-.03-1.09-.01-1.64-.02-1.02-.02-2.04-.04-3.06-.1-2-.13-3.96-.47-5.93-.8-.43-.07-.65.56-.2.67,1.95.5,3.96.75,5.96.87.99.06,1.99.09,2.98.05.54-.02,1.09-.06,1.63-.12.27-.03.54-.08.81-.13.31-.06.59-.09.87-.21.07-.03.06-.12-.01-.14h0Z"/><path class="cls-1" d="M39.09,66c-.43-.25-1.05-.23-1.53-.3-.62-.09-1.25-.18-1.86-.31-1.09-.23-2.17-.49-3.24-.82s-2.03-.68-3.02-1.11-1.96-.97-2.95-1.44c-.35-.17-.75.33-.41.58.94.68,2.05,1.16,3.11,1.61s2.1.82,3.18,1.12c1.13.32,2.29.55,3.45.71.59.08,1.19.14,1.79.17.46.02,1.06.11,1.49-.09.05-.02.04-.09,0-.11h0Z"/><path class="cls-1" d="M51.84,70.23c-.43-.16-.87-.2-1.33-.26s-.88-.14-1.32-.21c-.88-.14-1.76-.25-2.64-.39-1.61-.24-3.21-.49-4.81-.8-3.18-.61-6.33-1.36-9.43-2.27-.88-.26-1.76-.52-2.63-.8s-1.73-.66-2.61-.83c-.18-.04-.36.01-.45.19-.07.15-.04.39.13.47.76.39,1.63.61,2.44.87s1.55.49,2.33.72c1.59.47,3.2.89,4.81,1.28,3.17.76,6.39,1.37,9.62,1.81.99.14,1.99.26,2.99.32.52.03,1.03.05,1.55.08.45.03.89.08,1.33-.02.08-.02.12-.14.03-.18h0Z"/><path class="cls-1" d="M58.63,70.87c-.4-.21-.91-.23-1.35-.26-.34-.02-.68-.04-1.02-.05-.77-.03-1.54-.04-2.32-.05-.4,0-.42.71,0,.72.78.03,1.56.03,2.34.03.42,0,.84,0,1.26-.02.36-.02.77-.04,1.1-.2.08-.04.07-.13,0-.17h0Z"/><path class="cls-1" d="M55.32,74.46c-1.85-.19-3.7-.39-5.54-.67-1.72-.26-3.44-.56-5.16-.83-3.37-.54-6.74-1.04-10.1-1.63-1.55-.27-3.13-.65-4.38-1.67-.43-.35-.94.34-.51.69,1.13.92,2.53,1.37,3.94,1.66,1.6.33,3.23.54,4.85.79,3.59.57,7.18,1.16,10.78,1.68,2.02.29,4.07.54,6.12.38.27-.02.27-.39,0-.41h0Z"/><path class="cls-1" d="M55.12,77.94c-.57-.22-1.25-.21-1.85-.28-.63-.07-1.26-.1-1.89-.16-1.36-.12-2.72-.24-4.07-.4-2.61-.3-5.2-.7-7.77-1.21-.7-.14-1.39-.28-2.09-.44-.38-.08-.76-.17-1.13-.26s-.76-.19-1.15-.16c-.28.02-.35.46-.12.59.61.35,1.4.44,2.08.59.61.13,1.21.26,1.82.39,1.23.25,2.46.46,3.7.66,2.48.39,4.98.72,7.49.86.79.05,1.58.09,2.37.12.46.01.91,0,1.36-.01.41-.01.85,0,1.24-.13.07-.02.09-.13.01-.16h0Z"/><path class="cls-1" d="M53.98,80.82c-.67.01-1.34,0-2.01.03-.62.02-1.25.04-1.87.04-1.3,0-2.6-.01-3.89-.09s-2.5-.21-3.74-.41c-1.32-.21-2.62-.52-3.93-.78-.41-.08-.66.56-.24.72,1.21.44,2.56.63,3.83.83s2.45.32,3.68.39c1.32.08,2.65.1,3.97.02.74-.05,1.48-.12,2.22-.22.69-.1,1.34-.25,2.01-.42.06-.02.06-.12-.01-.12h0Z"/><path class="cls-1" d="M58.12,81.32s-.06-.15-.07-.16c-.06-.07-.18-.11-.27-.14-.16-.06-.33-.08-.49-.11-.25-.04-.49-.05-.74-.05-.38,0-.76.05-1.13.13-.18.04-.33.17-.31.37.01.17.19.34.37.31.34-.06.67-.1,1.02-.12.47-.03.93-.02,1.4-.05.07,0,.15-.06.17-.12l.05-.03s.02-.02,0-.03h0Z"/><path class="cls-1" d="M59.58,85.48c-2.47-.49-4.98-.75-7.48-1.11-2.32-.33-4.63-.73-6.91-1.2-1.4-.29-2.8-.7-4.22-.88-.42-.05-.63.58-.21.73,1.17.42,2.4.65,3.61.9s2.39.48,3.59.69c2.36.41,4.74.78,7.13.95.77.06,1.55.11,2.32.15.72.04,1.42,0,2.13-.04.1,0,.16-.17.04-.19h0Z"/><path class="cls-1" d="M47.36,87.23c-.29-.08-.63-.05-.93-.08-.39-.04-.78-.09-1.17-.16-.66-.12-1.31-.31-1.93-.56-1.31-.52-2.45-1.32-3.48-2.28-.24-.22-.66.13-.44.39.92,1.13,2.28,1.95,3.62,2.47.69.27,1.41.47,2.15.58.37.06.75.09,1.13.09.32,0,.74.03,1.05-.09.17-.07.18-.31,0-.37h0Z"/><path class="cls-1" d="M102.12,41.62c.07-.31-.19-.71-.34-.97-.2-.37-.43-.72-.67-1.06-.48-.68-1.03-1.3-1.63-1.88-1.16-1.12-2.49-2.04-3.95-2.72-.43-.2-.66.5-.23.71,1.43.68,2.74,1.57,3.88,2.67.5.48.96.99,1.39,1.53.25.31.48.63.71.95.19.27.41.72.73.84.04.02.09-.02.1-.06h0Z"/><path class="cls-1" d="M102.86,41.66c0-.22-.11-.45-.21-.65-.12-.24-.25-.46-.39-.69-.27-.45-.57-.88-.9-1.29-.66-.82-1.41-1.67-2.3-2.24-.29-.19-.72.2-.44.47.38.37.81.69,1.19,1.05.37.34.72.7,1.05,1.08s.63.77.93,1.17c.16.21.3.43.45.65.13.2.27.41.47.54.08.05.16-.03.16-.11h0Z"/><path class="cls-1" d="M103.19,41.49c.05-.13-.02-.23-.09-.35-.1-.15-.2-.3-.31-.44-.22-.28-.44-.55-.67-.83s-.44-.52-.66-.77-.42-.5-.65-.72c-.25-.24-.7.09-.49.39s.49.56.74.83c.23.25.46.5.7.74.27.26.52.55.8.8.14.12.27.27.44.35.04.02.17.06.19,0h0Z"/><path class="cls-1" d="M103.68,41.21c-.07-.11-.1-.24-.14-.37-.06-.2-.17-.37-.29-.54-.22-.31-.45-.62-.71-.89-.22-.23-.44-.46-.68-.67-.26-.22-.52-.46-.84-.57-.25-.08-.52.19-.34.42.22.28.51.47.78.7.23.19.45.39.67.59.23.22.46.44.69.67.15.15.3.32.47.44.11.08.24.16.32.27.02.03.08,0,.06-.04h0Z"/><path class="cls-1" d="M103.23,40.23c0-.13-.04-.25-.08-.37-.05-.15-.1-.29-.19-.43-.12-.2-.27-.38-.43-.54-.13-.13-.27-.24-.43-.34-.07-.04-.15-.08-.23-.12-.14-.07-.28-.1-.44-.09-.23.02-.35.33-.16.49.16.13.36.19.54.29.16.09.32.18.45.3.12.11.22.22.33.35.08.09.15.19.21.29.05.08.09.17.14.26.08.12.28.07.27-.08h0Z"/><path class="cls-1" d="M103.06,42.22l-.03-.04v.07c.03-.11-.03-.18-.09-.26-.1-.13-.2-.25-.32-.37-.15-.15-.31-.3-.47-.45-.32-.29-.62-.62-1.01-.81-.24-.12-.46.2-.31.4s.35.37.55.52c.15.12.31.25.46.37.18.13.35.27.54.4.11.08.22.14.35.2.08.04.17.09.26.05h-.07s.03.02.05.02c.07.04.16-.04.1-.11h0Z"/><path class="cls-1" d="M23.14,41.84c0-.19-.04-.33-.08-.52-.06-.3-.03-.62.06-.91.17-.54.53-.97.95-1.35.89-.8,1.93-1.46,2.94-2.09,2.02-1.27,4.15-2.32,6.32-3.3.59-.27,1.19-.53,1.79-.79.64-.27,1.33-.5,1.92-.85.29-.17.01-.56-.27-.49-.6.17-1.17.48-1.74.73-.6.26-1.2.53-1.8.8-1.15.52-2.28,1.06-3.39,1.64s-2.25,1.22-3.32,1.92-2.1,1.37-2.98,2.24c-.41.41-.78.9-.9,1.48-.1.48-.12,1.36.45,1.54.02,0,.05-.01.05-.04h0Z"/><path class="cls-1" d="M53.58,36.27c.14.27.48.31.75.39.29.08.6.14.9.19.66.11,1.32.2,1.99.14.35-.03.3-.62-.05-.61-.61.01-1.22.06-1.83,0-.28-.02-.56-.07-.84-.12s-.62-.19-.9-.05c-.02,0-.03.03-.02.05h0Z"/><path class="cls-1" d="M61.17,36.49s.08-.04.13-.05h-.09c.1.06.18,0,.28-.03.06-.02.13-.04.2-.05.05-.01.13-.02.19-.02.03,0,.05,0,.08,0,.01,0,.09,0,.07,0,.23.03.45.12.64.3.1.09.27.08.36-.03.1-.11.07-.26-.03-.36-.22-.23-.53-.35-.84-.37-.33-.02-.69.04-.95.27-.06.05-.09.12-.07.2h0s0-.04,0-.06c-.01.04-.04.08-.07.11-.03.05.03.11.08.08h0Z"/><path class="cls-1" d="M53.86,39.3c.99.08,1.99.04,2.99.06.9.02,1.8.14,2.7.14.38,0,.4-.51.04-.57-.94-.16-1.95-.1-2.89-.08s-1.93.09-2.84.34c-.06.02-.06.11,0,.12h0Z"/><path class="cls-1" d="M61.48,39.39c.23.06.48.06.72.07.27.01.53.02.8.03.47.02.95.05,1.41.02.34-.02.36-.52.01-.54-.49-.03-.98,0-1.47.01-.22,0-.45.01-.67.02-.28.01-.56,0-.83.08-.16.04-.11.26.02.29h0Z"/><path class="cls-1" d="M42.09,39.25c.27.09.58.07.86.07.37,0,.74-.02,1.11-.02.73-.01,1.45-.04,2.18-.08.66-.03,1.31-.06,1.97-.1.33-.02.66-.03.99-.05.31-.02.65.01.95-.08.28-.08.29-.48-.02-.52-.38-.05-.79.02-1.18.05-.32.02-.63.04-.95.07-.7.05-1.39.09-2.09.15s-1.4.11-2.1.18c-.33.03-.65.06-.98.1-.25.03-.52.04-.75.16-.03.01-.02.06,0,.07h0Z"/><path class="cls-1" d="M33.96,43.5c1.53-.34,3.05-.67,4.6-.88.74-.1,1.49-.17,2.23-.21s1.54.03,2.3-.05c.31-.03.33-.51.02-.55-.68-.1-1.42-.02-2.11.02-.81.05-1.62.14-2.43.26-1.59.24-3.17.64-4.65,1.28-.08.03-.04.16.04.14h0Z"/><path class="cls-1" d="M46.69,42.82c.66.08,1.35.04,2.02.03s1.37-.01,2.06-.03c1.39-.04,2.78-.07,4.16-.11,2.66-.09,5.32-.18,7.98-.27,1.47-.05,2.96-.06,4.42-.2.36-.03.39-.58,0-.58-2.74,0-5.48.17-8.22.28s-5.32.23-7.98.35c-.78.04-1.56.09-2.34.13-.7.04-1.42.05-2.11.18-.12.02-.14.21,0,.22h0Z"/><path class="cls-1" d="M31.65,46.46c.07.03.09.07.17.08.07.01.14.02.22.02.15.02.3.03.46.04.31.03.62.02.94.01.66-.02,1.32-.08,1.96-.22.28-.06.18-.54-.1-.5-.61.1-1.22.22-1.83.28-.32.03-.65.05-.97.07-.14,0-.29.02-.43.02-.07,0-.15,0-.22,0s-.11.04-.18.06c-.07.02-.05.1,0,.12h0Z"/><path class="cls-1" d="M38.3,46.05c.38.17.83.12,1.24.14.46.02.91.03,1.37.04.87.01,1.75.06,2.63.03.36-.01.41-.56.04-.57-.89-.02-1.8.02-2.69.03-.48,0-.96.02-1.44.04-.38.01-.79-.02-1.14.13-.07.03-.08.13,0,.17h0Z"/><path class="cls-1" d="M46.92,46.32c.13.11.26.11.43.1.28-.02.56-.03.84-.06.55-.05,1.11-.1,1.66-.15,1.06-.1,2.13-.19,3.19-.27,2.17-.16,4.33-.3,6.5-.38,1.23-.05,2.46-.09,3.69-.15.31-.01.32-.55,0-.56-2.15-.02-4.32.15-6.47.29s-4.36.33-6.53.55c-.61.06-1.23.13-1.84.21-.31.04-.62.08-.92.13-.21.03-.43.04-.56.22-.01.02-.02.05,0,.07h0Z"/><path class="cls-1" d="M66.47,45.62c2.13.16,4.27.4,6.41.43.33,0,.4-.5.06-.52-2.15-.13-4.32-.06-6.47-.05-.08,0-.08.14,0,.14h0Z"/><path class="cls-1" d="M76.59,45.02c-.12-.16-.34-.37-.38-.58l-.21.17c.15.07.31.06.47.07s.34.01.51.02c.34.03.68.07,1.02.12.68.1,1.34.3,2,.48.26.07.46-.34.19-.46-.66-.29-1.4-.41-2.11-.5-.33-.04-.67-.06-1-.07-.18,0-.36,0-.54,0s-.38,0-.54.09c-.12.07-.07.23.04.27.09.03.19.16.25.23.07.08.14.16.22.24.05.06.13-.02.09-.07h0Z"/><path class="cls-1" d="M86.04,47.97c-.02-.09-.02-.19-.02-.28l-.02.07.03-.04-.12.06c.11,0,.22-.01.33-.02.1,0,.2-.01.31-.02.22-.01.44-.01.66,0s.43.03.65.06c.19.03.38.08.57.09.29.01.41-.4.12-.51-.22-.08-.47-.1-.71-.12-.21-.02-.41-.03-.62-.02-.44.01-.92.06-1.34.21-.11.04-.14.21-.06.29.08.07.1.18.13.27.02.05.11.03.09-.02h0Z"/><path class="cls-1" d="M48.63,48.68c2.03.16,4.08.1,6.12.08s4.18-.06,6.26-.1c4.06-.07,8.11-.15,12.17-.22,1.13-.02,2.26-.04,3.4-.06.59-.01,1.17-.02,1.76-.03s1.19.01,1.77-.07c.32-.04.31-.53-.01-.56-.98-.1-1.99,0-2.97.03s-1.98.04-2.97.07c-2.07.05-4.13.09-6.2.14-4.08.09-8.16.19-12.23.28-2.37.06-4.75.07-7.1.35-.05,0-.06.09,0,.1h0Z"/><path class="cls-1" d="M40.97,48.68c.19.23.66.13.91.11.36-.03.72-.06,1.09-.09.38-.03.76-.07,1.14-.1s.79-.05,1.18-.13.33-.62-.07-.6c-.74.04-1.48.18-2.21.28-.4.06-.8.11-1.19.17-.23.03-.72.06-.85.31,0,.02,0,.04,0,.05h0Z"/><path class="cls-1" d="M56.96,33.81c.15-.63.24-1.26.44-1.87.17-.5.37-.98.63-1.43.5-.89,1.11-1.7,1.84-2.42,1.44-1.4,3.2-2.41,5-3.28.52-.25,1.04-.5,1.54-.78.31-.17.61-.35.9-.55.44-.29.76-.61,1.07-1.05.17-.24.06-.62-.13-.8-.22-.21-.56-.24-.81-.09-.67.39-1.29.87-1.97,1.25-.53.29-1.07.56-1.6.83-.94.48-1.86,1-2.73,1.6-1.65,1.13-3.26,2.63-4.15,4.45-.62,1.25-1.13,2.72-.9,4.14.08.46.78.42.88,0h0Z"/><path class="cls-1" d="M71.06,22.68c.47-.05.93-.42,1.29-.72.63-.53,1.25-1.14,1.65-1.86.52-.92.82-1.94.98-2.98s.17-2.02.13-3.03c-.05-1.08-.1-2.2-.34-3.26-.2-.85-1.58-.73-1.55.17.03,1.03.24,2.05.31,3.07.07.93.07,1.86-.04,2.78s-.36,1.74-.68,2.58c-.23.59-.47,1.21-.85,1.72-.15.21-.32.4-.5.58-.19.2-.43.38-.58.61-.08.13.03.33.19.31h0Z"/><path class="cls-1" d="M74.93,21.2c.27-.17.53-.32.76-.54.26-.25.53-.52.73-.82.55-.8.88-1.69,1.04-2.64.21-1.27.08-2.56-.18-3.81-.56-2.62-1.74-5.14-1.77-7.85,0-.61.06-1.23.22-1.85.07-.27.15-.5.26-.77.15-.33.37-.63.5-.97s.09-.74-.24-.97-.71-.16-.99.11c-.56.52-.86,1.4-1.06,2.12-.16.57-.24,1.16-.27,1.75-.06,1.31.12,2.58.44,3.85.63,2.55,1.8,4.98,1.79,7.65,0,1.54-.38,3.31-1.47,4.46-.15.16.08.37.25.27h0Z"/><path class="cls-1" d="M77.58,4.36c.08-.42.22-.82.31-1.23.07-.33.13-.66.21-.99.09-.43.19-.85.3-1.28.09-.33-.09-.73-.44-.82s-.7.09-.82.44c-.16.46-.32.93-.38,1.41-.04.32-.07.64-.06.96,0,.54.15,1.04.3,1.56.09.3.53.24.59-.05h0Z"/><path class="cls-1" d="M78.05,6.16c.04.69.24,1.4.43,2.07.22.78.42,1.58.6,2.37.27,1.2.52,2.42.59,3.65.11,2.05-.16,4.2-1.08,6.05-.23.46-.51.94-.8,1.33-.18.23-.36.46-.56.68-.24.27-.53.49-.75.78s-.21.67,0,.94c.19.25.61.41.91.24,1.03-.59,1.83-1.78,2.38-2.81s.92-2.11,1.16-3.25c.53-2.47.25-5.04-.42-7.45-.21-.75-.48-1.5-.78-2.22-.36-.86-.75-1.78-1.35-2.51-.11-.13-.34-.07-.33.12h0Z"/><path class="cls-1" d="M58.92,37.17c0-.57-.24-1.11-.24-1.68,0-.26.02-.52.05-.78.07-.48.22-.95.42-1.39.4-.89,1.02-1.67,1.69-2.38.77-.81,1.58-1.58,2.38-2.37.45-.44.89-.88,1.34-1.31.57-.55,1.26-1.08,1.59-1.81.2-.44-.26-1.02-.75-.81-.55.24-.92.63-1.33,1.05-.32.33-.64.65-.97.98-.42.42-.84.85-1.26,1.27-.85.86-1.73,1.7-2.51,2.62s-1.43,1.95-1.74,3.11c-.15.56-.23,1.17-.19,1.75.06.72.27,1.62.89,2.07.25.18.63-.03.63-.33h0Z"/><path class="cls-1" d="M63.67,35c.1,0,.33-1,.35-1.07.11-.32.23-.65.37-.96.2-.45.45-.88.73-1.28.58-.82,1.28-1.56,2.03-2.24,1.55-1.38,3.28-2.55,4.71-4.06.84-.89,1.62-1.91,2.06-3.06.3-.8-.97-1.32-1.37-.58-.25.47-.47.94-.77,1.38s-.63.83-.99,1.22c-.69.74-1.46,1.4-2.23,2.05-1.8,1.54-3.65,3.03-4.85,5.12-.34.59-.63,1.23-.76,1.9-.09.49-.22,1.14.02,1.6.07.13.17.23.32.23.06,0,.13-.01.18-.04.04-.02.2-.22.18-.22h0Z"/><path class="cls-1" d="M65.59,37.64c.09-.19.11-.38.06-.58,0-.15-.03-.31-.06-.46-.03-.21-.04-.43-.02-.64.02-.29.1-.58.19-.86.17-.5.44-.95.75-1.37.68-.91,1.58-1.67,2.4-2.45.93-.88,1.85-1.77,2.77-2.65.44-.42.89-.85,1.33-1.28.47-.46,1.02-.9,1.35-1.47s-.3-1.23-.89-.92c-.49.26-.85.67-1.24,1.06s-.79.77-1.17,1.15c-.82.82-1.64,1.64-2.45,2.45-.76.76-1.53,1.5-2.26,2.28s-1.39,1.65-1.7,2.67c-.19.61-.23,1.25-.14,1.88.06.42.35,1.4.94,1.29.04,0,.14-.04.15-.1h0Z"/><path class="cls-1" d="M70.14,36.78c.33-.39.53-.93.76-1.39.27-.53.52-1.06.81-1.57.49-.87,1.02-1.71,1.62-2.51,1.28-1.69,2.75-3.21,4.3-4.65.9-.84,1.89-1.61,2.75-2.49.64-.65-.26-1.61-.96-1.03-1.76,1.45-3.43,3.07-4.96,4.75-1.4,1.53-2.73,3.24-3.64,5.12-.29.61-.57,1.22-.77,1.87-.1.33-.16.67-.24,1-.06.28-.09.56-.04.84.03.19.26.19.36.07h0Z"/><path class="cls-1" d="M72.76,35.12c.37-.42.69-.93,1-1.4.39-.58.8-1.13,1.2-1.7.65-.91,1.33-1.8,2.07-2.64,1.37-1.57,2.9-2.93,4.53-4.22.72-.58-.07-1.73-.83-1.18-1.72,1.25-3.27,2.81-4.62,4.45-.76.93-1.46,1.9-2.09,2.92-.38.62-.72,1.3-1.02,1.97-.23.52-.47,1.08-.56,1.64-.03.16.22.28.33.16h0Z"/><path class="cls-1" d="M81.72,21.75c.13-.11.27-.18.42-.26.19-.1.36-.26.53-.4.29-.25.54-.52.76-.83.43-.59.79-1.22,1.07-1.89.51-1.23.78-2.55.76-3.89-.01-1.08-.2-2.16-.55-3.18-.42-1.24-1.05-2.52-2.02-3.41-.66-.6-1.57.29-1.13,1.01.37.59.81,1.14,1.13,1.76.23.44.42.89.58,1.36.3.9.46,1.85.46,2.8,0,1.01-.16,2.02-.47,2.98-.2.6-.45,1.18-.76,1.73-.17.32-.35.63-.52.95s-.31.72-.54.99c-.14.17.11.4.27.26h0Z"/><path class="cls-1" d="M87.05,7.57c.44-1.09.39-2.29.35-3.45-.01-.36-.39-.66-.74-.62-.38.05-.63.36-.62.74.03,1.11.04,2.28.52,3.31.09.18.39.26.48.03h0Z"/><path class="cls-1" d="M87.52,8.76c-.57.42-.57,1.25-.46,1.89.22,1.21.91,2.1,1.81,2.9.54.48,1.13.9,1.67,1.37.5.44.94.96,1.32,1.51,1.36,2,1.82,4.58,1.15,6.87-.2.67-.46,1.31-.81,1.91-.38.65-.85,1.23-1.32,1.82-.27.34-.31.8.02,1.12s.8.27,1.12-.02c.58-.52,1.06-1.06,1.48-1.73.37-.58.67-1.21.91-1.86.48-1.3.68-2.72.58-4.1s-.5-2.7-1.17-3.89c-.74-1.33-1.73-2.41-2.96-3.32-.72-.54-1.51-1.06-2.11-1.74-.35-.4-.68-.84-.83-1.36-.12-.42-.09-.85-.17-1.27-.02-.1-.16-.16-.25-.1h0Z"/><path class="cls-1" d="M75.99,37.04c.74.04,1.43-.48,2.04-.85s1.15-.76,1.68-1.2c.9-.74,1.76-1.53,2.57-2.37,1.67-1.74,3.15-3.69,4.34-5.79.31-.55.61-1.12.89-1.69.14-.29.27-.58.4-.87.21-.48.46-.99.25-1.51-.11-.28-.46-.5-.76-.36-.71.31-.92,1.23-1.22,1.87-.22.47-.45.93-.69,1.38-.5.93-1.05,1.83-1.64,2.7-1.32,1.94-2.89,3.71-4.65,5.26-.5.44-1,.86-1.51,1.28-.31.25-.61.51-.92.76-.38.32-.78.61-.98,1.07-.06.14.06.31.21.32h0Z"/><path class="cls-1" d="M74.83,42.23c.67-.64,1.21-1.43,1.85-2.1.46-.47.94-.91,1.44-1.33.98-.81,2.02-1.54,3.1-2.22,2.09-1.33,4.25-2.62,6.17-4.19.51-.42,1-.86,1.47-1.32.61-.62,1.29-1.3,1.66-2.11.15-.33-.1-.76-.4-.89-.15-.07-.32-.09-.48-.05-.21.05-.3.2-.46.33.36-.3.02-.04-.07.06-.06.07-.11.14-.17.21-.1.12-.19.25-.29.37-.18.23-.37.46-.57.68-.45.49-.93.94-1.43,1.38-1.03.88-2.14,1.67-3.26,2.41-2.11,1.4-4.27,2.73-6.15,4.44-1.2,1.09-2.53,2.5-2.88,4.13-.06.29.29.38.47.21h0Z"/><path class="cls-1" d="M81.16,39.72c.16-.06.31-.08.47-.12.18-.04.33-.13.49-.22.37-.19.75-.37,1.11-.58.72-.41,1.43-.84,2.11-1.32,1.05-.74,2.08-1.53,3.05-2.36,1.89-1.62,3.65-3.37,5.26-5.27.43-.51.86-1.04,1.27-1.57.2-.25.39-.5.58-.76.11-.15.24-.31.33-.48.11-.21.16-.45.23-.68.13-.44-.4-.98-.83-.68-.37.26-.68.52-.95.89-.19.25-.37.5-.56.75-.36.47-.73.93-1.1,1.38-.73.89-1.5,1.74-2.29,2.58-1.71,1.82-3.59,3.49-5.55,5.04-.63.5-1.26,1-1.9,1.49-.37.29-.73.58-1.1.87-.15.11-.32.21-.44.36s-.21.27-.35.39c-.13.11,0,.34.16.28h0Z"/><path class="cls-1" d="M97.11,25.12c.17-.21.35-.37.48-.61.2-.4.37-.81.5-1.24.22-.69.39-1.39.49-2.11.18-1.19.21-2.41.1-3.61-.21-2.24-.92-4.42-2.03-6.38-.62-1.09-1.37-2.28-2.37-3.06-.33-.26-.77-.31-1.1-.02-.3.26-.42.74-.18,1.08.61.88,1.35,1.65,1.92,2.56.52.83.95,1.71,1.29,2.63.73,1.96,1.08,4.08,1.05,6.16-.01.75-.08,1.5-.2,2.25-.05.36-.13.72-.19,1.09-.03.18-.08.37-.1.56s.02.37,0,.56.21.28.33.14h0Z"/><path class="cls-1" d="M93.14,6.49l-.14-.4.05.13-.14-.49.04.16c-.01-.1-.03-.21-.05-.31l.02.17c0-.09,0-.17,0-.26v.18c0-.1.02-.2.05-.31l-.04.18s.03-.07.04-.11c.04-.09.06-.16.08-.27.07-.27-.08-.62-.34-.74-.11-.05-.22-.08-.34-.08-.15,0-.37.09-.46.21-.11.13-.21.24-.26.41-.03.12-.06.24-.07.36-.01.21,0,.38.04.58,0,.02,0,.04.02.06.02.07.04.14.07.2.05.11.12.2.19.3l-.1-.13c.18.24.37.47.66.57.11.04.22.07.34.04.04,0,.08-.02.12-.04.08-.03.16-.09.2-.17l.03-.08c.01-.06.01-.12,0-.17h0Z"/><path class="cls-1" d="M84,40.2c.78.1,1.51-.34,2.17-.71.59-.33,1.18-.67,1.75-1.03,1.08-.69,2.13-1.41,3.14-2.2,1.9-1.47,3.67-3.11,5.3-4.87.99-1.07,2.01-2.18,2.76-3.43.37-.62-.47-1.4-1-.84-.92.96-1.71,2.04-2.6,3.03-.78.87-1.6,1.71-2.45,2.52-1.76,1.66-3.65,3.19-5.64,4.56-.56.39-1.13.77-1.71,1.14-.67.43-1.5.84-1.86,1.57-.05.11.03.24.14.26h0Z"/><path class="cls-1" d="M99.27,26.8c.17.03.63-.22.8-.41.1-.11.19-.23.29-.34.14-.16.26-.34.39-.51.21-.28.42-.57.62-.87.18-.26.36-.52.54-.78.14-.2.22-.45.18-.69-.05-.33-.35-.63-.7-.61-.6.03-.85.68-1.11,1.13-.15.26-.29.53-.44.79-.25.44-.48.91-.67,1.37-.07.17-.16.42-.13.62.02.11.11.28.23.31h0Z"/></svg>